<svg width="95" height="88" viewBox="0 0 104 97" fill="none" xmlns="http://www.w3.org/2000/svg">
<path fill-rule="evenodd" clip-rule="evenodd" d="M10.4 33.9506H20.7989C20.8004 35.7284 21.8536 37.4394 23.6745 38.2886C26.2432 39.4865 29.3667 38.5154 30.651 36.1196L31.8138 33.9506H72.1864L73.3491 36.1196C74.6335 38.5154 77.7566 39.4865 80.3254 38.2886C82.1465 37.4394 83.1995 35.7284 83.201 33.9506H93.6V43.6507H10.4V33.9506ZM78.6136 24.2507H93.6C99.3439 24.2507 104 28.5936 104 33.9506V43.6507C104 47.7246 101.307 51.2122 97.4906 52.6487C97.5083 52.8806 97.5177 53.1143 97.5177 53.3505C97.5177 54.0581 97.4345 54.7638 97.2702 55.4544L89.181 89.404C88.1239 93.8422 83.903 97 79.0286 97H24.9713C20.0968 97 15.8764 93.8422 14.819 89.404L6.73005 55.4544C6.50494 54.5097 6.43588 53.5664 6.50697 52.6478C2.69188 51.2107 0 47.7236 0 43.6507V33.9506C0 28.5936 4.65624 24.2507 10.4 24.2507H25.3862L36.949 2.68203C38.2333 0.286258 41.3568 -0.684796 43.9254 0.513091C46.4942 1.71098 47.5353 4.62419 46.2509 7.01997L37.0138 24.2507H66.9864L57.7491 7.01997C56.4647 4.62419 57.5058 1.71098 60.0746 0.513091C62.6434 -0.684796 65.7665 0.286258 67.0509 2.68203L78.6136 24.2507ZM16.8824 53.3505H87.1177L79.0286 87.3001H24.9713L16.8824 53.3505Z" fill="#B05635"/>
</svg>
