<svg width="32" height="32" viewBox="0 0 35 35" fill="none" xmlns="http://www.w3.org/2000/svg">
<path fill-rule="evenodd" clip-rule="evenodd" d="M17.5 35C7.83502 35 0 27.1649 0 17.5C0 7.83502 7.83502 0 17.5 0C27.1649 0 35 7.83502 35 17.5C35 27.1649 27.1649 35 17.5 35ZM29.2719 25.6528C30.8773 23.3391 31.8182 20.5294 31.8182 17.5C31.8182 9.59229 25.4078 3.18182 17.5 3.18182C9.59229 3.18182 3.18182 9.59229 3.18182 17.5C3.18182 20.5294 4.12265 23.3391 5.72807 25.6528C7.51856 23.2879 11.726 22.2727 17.5 22.2727C23.274 22.2727 27.4814 23.2879 29.2719 25.6528ZM26.9893 28.2224C26.5236 26.5481 23.1786 25.4545 17.5 25.4545C11.8214 25.4545 8.47636 26.5481 8.01074 28.2224C10.5371 30.4599 13.8599 31.8182 17.5 31.8182C21.1402 31.8182 24.4629 30.4599 26.9893 28.2224ZM17.5 22.2727C13.9377 22.2727 11.1364 19.7709 11.1364 14.3182C11.1364 10.7478 13.6486 7.95455 17.5 7.95455C21.3408 7.95455 23.8636 11.0116 23.8636 14.6364C23.8636 19.8539 21.0288 22.2727 17.5 22.2727ZM14.3182 14.3182C14.3182 17.9284 15.6199 19.0909 17.5 19.0909C19.3736 19.0909 20.6818 17.9747 20.6818 14.6364C20.6818 12.6484 19.4341 11.1364 17.5 11.1364C15.4854 11.1364 14.3182 12.4343 14.3182 14.3182Z" fill="#984527"/>
</svg>
