<svg width="25" height="25" viewBox="0 0 35 35" fill="none" xmlns="http://www.w3.org/2000/svg">
<path fill-rule="evenodd" clip-rule="evenodd" d="M35 35H28.2635V22.7428C28.2635 19.3804 26.8409 17.5048 24.2818 17.5048C21.5024 17.5048 19.8615 19.459 19.8615 22.7428V35H13.125V12.2334H19.8615V14.7938C19.8615 14.7938 21.9615 10.9375 26.7318 10.9375C31.4773 10.9375 35 13.9602 35 20.2158C35 26.4697 35 35 35 35ZM3.28175 6.5625C1.46587 6.5625 0 5.09293 0 3.28059C0 1.46956 1.46587 0 3.28175 0C5.09764 0 6.56354 1.46956 6.56354 3.28059C6.56354 5.09293 5.09764 6.5625 3.28175 6.5625ZM0 35H6.56354V13.125H0V35Z" fill="#984527"/>
</svg>
