<svg width="32" height="32" viewBox="0 0 35 35" fill="none" xmlns="http://www.w3.org/2000/svg">
<path fill-rule="evenodd" clip-rule="evenodd" d="M3.5 12.2502H6.99962C7.00012 12.8917 7.35459 13.5091 7.96738 13.8155C8.83183 14.2477 9.88302 13.8973 10.3153 13.0329L10.7066 12.2502H24.2935L24.6848 13.0329C25.1171 13.8973 26.1681 14.2477 27.0326 13.8155C27.6455 13.5091 27.9998 12.8917 28.0004 12.2502H31.5V15.7502H3.5V12.2502ZM26.4565 8.75027H31.5C33.433 8.75027 35 10.3173 35 12.2502V15.7502C35 17.2202 34.0937 18.4786 32.8093 18.997C32.8153 19.0806 32.8185 19.165 32.8185 19.2502C32.8185 19.5055 32.7904 19.7601 32.7351 20.0093L30.0128 32.2592C29.6571 33.8606 28.2366 35 26.5961 35H8.4038C6.76335 35 5.34301 33.8606 4.98715 32.2592L2.26492 20.0093C2.18916 19.6684 2.16592 19.3281 2.18984 18.9966C0.905922 18.4781 0 17.2199 0 15.7502V12.2502C0 10.3173 1.567 8.75027 3.5 8.75027H8.54345L12.4347 0.967744C12.867 0.103289 13.9182 -0.247091 14.7826 0.185136C15.6471 0.617363 15.9974 1.66852 15.5652 2.53298L12.4566 8.75027H22.5435L19.4348 2.53298C19.0026 1.66852 19.3529 0.617363 20.2174 0.185136C21.0819 -0.247091 22.1329 0.103289 22.5652 0.967744L26.4565 8.75027ZM5.68159 19.2502H29.3185L26.5961 31.5H8.4038L5.68159 19.2502Z" fill="#984527"/>
</svg>
