<svg width="32" height="32" viewBox="0 0 36 36" fill="none" xmlns="http://www.w3.org/2000/svg">
<path fill-rule="evenodd" clip-rule="evenodd" d="M14.7081 28.9161C6.86117 28.9161 0.5 22.555 0.5 14.7081C0.5 6.86115 6.86117 0.499985 14.7081 0.499985C22.555 0.499985 28.9162 6.86115 28.9162 14.7081C28.9162 17.9914 27.8024 21.0147 25.9323 23.4205L35.5 32.9884L32.9884 35.5L23.4205 25.9323C21.0147 27.8024 17.9914 28.9161 14.7081 28.9161ZM25.3641 14.7081C25.3641 20.5932 20.5932 25.3641 14.7081 25.3641C8.8229 25.3641 4.05202 20.5932 4.05202 14.7081C4.05202 8.82288 8.8229 4.052 14.7081 4.052C20.5932 4.052 25.3641 8.82288 25.3641 14.7081Z" fill="#984527"/>
</svg>
