<svg width="30" height="30" viewBox="0 0 30 30" fill="none" xmlns="http://www.w3.org/2000/svg">
<path d="M26.4844 4.5375H3.51562C3.30388 4.5375 3.13125 4.71013 3.13125 4.92188V6.79688C3.13125 7.00862 3.30388 7.18125 3.51562 7.18125H26.4844C26.6961 7.18125 26.8687 7.00862 26.8687 6.79688V4.92188C26.8687 4.71013 26.6961 4.5375 26.4844 4.5375ZM26.4844 22.8188H3.51562C3.30388 22.8188 3.13125 22.9914 3.13125 23.2031V25.0781C3.13125 25.2899 3.30388 25.4625 3.51562 25.4625H26.4844C26.6961 25.4625 26.8687 25.2899 26.8687 25.0781V23.2031C26.8687 22.9914 26.6961 22.8188 26.4844 22.8188ZM26.4844 13.6781H3.51562C3.30388 13.6781 3.13125 13.8508 3.13125 14.0625V15.9375C3.13125 16.1492 3.30388 16.3219 3.51562 16.3219H26.4844C26.6961 16.3219 26.8687 16.1492 26.8687 15.9375V14.0625C26.8687 13.8508 26.6961 13.6781 26.4844 13.6781Z" fill="#984527" stroke="#984527" stroke-width="0.3"/>
</svg>
