<svg width="25" height="25" viewBox="0 0 35 35" fill="none" xmlns="http://www.w3.org/2000/svg">
<path fill-rule="evenodd" clip-rule="evenodd" d="M24.0625 0H10.9375C4.9 0 0 4.89782 0 10.9375V24.0625C0 30.1021 4.9 35 10.9375 35H24.0625C30.1 35 35 30.1021 35 24.0625V10.9375C35 4.89782 30.1 0 24.0625 0ZM31.7186 24.0625C31.7186 28.2845 28.2843 31.7187 24.0625 31.7187H10.9375C6.71568 31.7187 3.28135 28.2845 3.28135 24.0625V10.9375C3.28135 6.71562 6.71568 3.28125 10.9375 3.28125H24.0625C28.2843 3.28125 31.7186 6.71562 31.7186 10.9375V24.0625Z" fill="#984527"/>
<path fill-rule="evenodd" clip-rule="evenodd" d="M17.5001 9.72223C12.3814 9.72223 8.23535 13.64 8.23535 18.4722C8.23535 23.3044 12.3814 27.2222 17.5001 27.2222C22.6187 27.2222 26.7648 23.3044 26.7648 18.4722C26.7648 13.64 22.6187 9.72223 17.5001 9.72223ZM17.5001 23.941C14.3037 23.941 11.7096 21.4867 11.7096 18.4722C11.7096 15.4557 14.3037 13.0035 17.5001 13.0035C20.6964 13.0035 23.2905 15.4557 23.2905 18.4722C23.2905 21.4867 20.6964 23.941 17.5001 23.941Z" fill="#984527"/>
<path fill-rule="evenodd" clip-rule="evenodd" d="M27.7941 19.4444C28.3705 19.4444 28.8235 19.0091 28.8235 18.4722C28.8235 17.9354 28.3705 17.5 27.7941 17.5C27.2176 17.5 26.7646 17.9354 26.7646 18.4722C26.7646 19.0091 27.2176 19.4444 27.7941 19.4444Z" fill="#984527"/>
</svg>
