<svg width="25" height="25" viewBox="0 0 35 35" fill="none" xmlns="http://www.w3.org/2000/svg">
<path fill-rule="evenodd" clip-rule="evenodd" d="M34.6965 14.0068H17.8734C17.8734 15.7558 17.8734 19.2538 17.8477 21.0029H27.5963C27.2229 22.7518 25.8976 25.2005 24.0216 26.4336C24.0216 26.4318 24.0216 26.4441 24.0216 26.4423C21.5483 28.0845 18.249 28.4572 15.8224 27.9674C11.9981 27.2084 8.97407 24.4381 7.74908 20.9189C7.74908 20.9136 7.77475 20.8648 7.77475 20.8613C7.00009 18.6785 7.00009 15.7558 7.77475 14.0068C8.75008 10.792 11.8744 7.85902 15.6987 7.05627C18.774 6.40376 22.2483 7.11052 24.7963 9.49951C25.1463 9.16728 29.4956 4.91027 29.8223 4.56377C21.098 -3.33649 7.12375 -0.557229 1.89945 9.64479C1.89945 9.64479 1.89945 9.64479 1.89945 9.66404C-0.699866 14.675 -0.573863 20.5796 1.92512 25.351C1.89945 25.3562 1.89945 25.3595 1.89945 25.3647C4.1511 29.7551 8.2741 33.1218 13.2231 34.4037C18.4987 35.7856 25.1976 34.841 29.6963 30.7782C29.6963 30.7799 29.6963 30.7817 29.6963 30.7834C33.5206 27.3554 35.8702 21.5154 34.6965 14.0068Z" fill="#984527"/>
</svg>
