<svg width="637" height="39" viewBox="0 0 637 39" fill="none" xmlns="http://www.w3.org/2000/svg">
<path fill-rule="evenodd" clip-rule="evenodd" d="M0 24.999C0.841744 25.374 1.63029 25.485 2.41154 25.457C4.01992 25.409 5.61684 25.312 7.21376 25.199C12.0222 24.843 17.008 25.717 21.5422 23.335C21.7028 23.248 21.9594 23.233 22.1524 23.275C25.0823 23.99 27.9955 24.715 30.9192 25.438L30.842 25.992C29.556 26.013 28.2501 25.922 26.9859 26.069C25.4077 26.25 23.7232 26.348 22.3318 26.977C19.5812 28.217 16.9757 29.778 14.3535 31.259C14.0176 31.446 13.6348 32.036 13.7214 32.316C13.8163 32.627 14.4119 33 14.7936 33.005C16.7264 33.036 18.7155 33.221 20.5815 32.862C24.7433 32.058 28.4388 30.205 31.7881 27.699C32.4056 27.232 33.3026 26.632 33.9451 26.75C38.2081 27.514 42.4283 28.448 46.7716 29.349C46.1968 29.683 45.6065 30.213 44.918 30.384C42.5774 30.972 40.2243 31.581 37.8326 31.908C33.5248 32.505 29.3703 33.43 25.8156 36.019C31.9696 32.737 39.0686 32.898 45.7608 31.126C40.9503 35.104 35.0476 35.446 28.7372 35.891C32.8061 37.064 39.9583 35.489 45.5814 32.31C45.1496 32.989 44.9786 33.49 44.627 33.779C40.8898 36.826 36.727 38.673 31.6379 37.946C29.6238 37.652 27.5721 37.59 25.536 37.425C27.2946 37.779 29.0532 38.138 30.8118 38.485C37.8576 39.874 44.8607 36.565 47.9127 30.321C48.3831 29.36 48.9422 28.89 49.9477 28.693C49.8194 28.267 49.714 27.831 49.6285 27.392C44.1618 28.115 44.0023 28.659 41.1203 21.143C38.2769 13.733 31.5096 11.787 24.8904 9.30399C25.0009 10.139 25.1637 10.958 25.6539 11.49C27.2289 13.166 28.8967 14.768 30.5802 16.35C32.5047 18.165 34.5741 19.854 36.413 21.745C38.0339 23.412 39.4201 25.278 41.186 27.375C38.3249 26.583 35.7705 25.788 33.1628 25.164C30.9224 24.632 29.6311 23.603 29.1867 21.212C28.2824 16.388 24.6526 13.597 20.6556 11.222L19.9296 11.675C21.8843 14.979 23.8411 18.283 25.7947 21.585C21.61 19.77 17.8748 17.944 15.6135 13.879C12.4488 8.19301 8.00543 3.408 1.914 0.277C1.79822 0.214 1.696 0.116 1.60213 0C1.38934 0.184 1.16092 0.323001 0.913714 0.429001C2.66917 4.301 4.77197 8.058 7.01557 11.747C8.89516 14.847 12.0222 17.166 15.6594 18.061C18.8365 18.844 21.0519 20.802 23.8432 22.355C19.5322 21.9 15.4831 21.11 11.436 21.158C7.33265 21.213 3.38367 22.46 0 24.999ZM7.12197 7.31499C9.22477 11.363 12.284 14.634 16.329 17.384C11.3672 16.857 4.10024 8.383 2.14138 0.821999C7.9418 5.128 12.5761 9.783 15.432 16.001C13.9592 14.626 12.4082 13.333 11.0407 11.874C9.67327 10.4 8.5061 8.76999 7.12197 7.31499ZM29.5685 13.242C35.3856 16.252 37.9327 22.066 42.0121 26.579C36.5611 21.331 31.1122 16.081 25.6675 10.838C33.5446 12.659 39.3221 16.707 41.4697 24.484C37.8451 20.414 35.4064 15.171 29.5685 13.242ZM18.2336 31.123C18.3066 31.299 18.3849 31.477 18.4547 31.658C22.4736 30.208 26.4925 28.756 30.5124 27.308C25.7144 30.473 20.8214 33.334 14.5767 32.079C19.309 30.904 22.313 25.623 28.1687 27.224C24.8612 28.523 21.5453 29.825 18.2336 31.123ZM25.8354 17.878C24.8966 16.724 23.4948 15.915 22.3996 14.856C21.8551 14.323 21.5276 13.569 20.9727 12.703C24.4596 13.811 27.6795 17.845 28.2167 21.98C27.4407 20.602 26.8325 19.091 25.8354 17.878ZM2.23109 24.782C5.1579 22.313 12.573 21.112 17.3303 22.525C15.3715 22.578 13.8538 22.556 12.3497 22.674C10.8457 22.785 9.34575 23.033 7.85106 23.218C7.85314 23.331 7.86878 23.44 7.88652 23.55C11.5268 23.494 15.166 23.44 18.8136 23.382C18.8188 23.618 18.8313 23.845 18.8417 24.081C13.3083 24.315 7.78222 24.549 2.23109 24.782Z" fill="#E09172"/>
<path fill-rule="evenodd" clip-rule="evenodd" d="M625.567 21.357C621.518 21.309 617.466 22.102 613.156 22.556C615.949 21 618.166 19.045 621.346 18.263C624.98 17.367 628.11 15.048 629.987 11.946C632.227 8.25897 634.335 4.49897 636.089 0.629974C635.843 0.523974 635.616 0.381975 635.403 0.198975C635.305 0.314975 635.207 0.415974 635.086 0.477974C628.997 3.60797 624.553 8.39397 621.386 14.08C619.129 18.145 615.39 19.968 611.205 21.784C613.164 18.482 615.119 15.178 617.073 11.876L616.344 11.421C612.351 13.798 608.718 16.589 607.813 21.411C607.372 23.802 606.08 24.833 603.836 25.365C601.23 25.989 598.675 26.782 595.814 27.573C597.582 25.475 598.969 23.609 600.589 21.945C602.428 20.055 604.495 18.363 606.423 16.548C608.106 14.965 609.773 13.366 611.348 11.689C611.838 11.159 611.998 10.337 612.114 9.50198C605.491 11.987 598.726 13.933 595.882 21.343C592.997 28.859 592.839 28.312 587.371 27.59C587.291 28.031 587.184 28.465 587.054 28.893C588.06 29.088 588.621 29.56 589.086 30.521C592.141 36.765 599.148 40.074 606.189 38.685C607.949 38.338 609.706 37.977 611.464 37.625C609.428 37.786 607.377 37.851 605.363 38.145C600.273 38.87 596.111 37.025 592.371 33.977C592.022 33.688 591.851 33.189 591.418 32.508C597.046 35.687 604.192 37.262 608.264 36.09C601.95 35.644 596.054 35.304 591.239 31.324C597.936 33.098 605.034 32.937 611.185 36.22C607.629 33.631 603.476 32.704 599.166 32.109C596.778 31.781 594.427 31.17 592.082 30.582C591.391 30.411 590.804 29.884 590.228 29.549C594.57 28.648 598.793 27.711 603.053 26.95C603.696 26.832 604.595 27.429 605.215 27.896C608.561 30.403 612.26 32.257 616.416 33.059C618.286 33.418 620.272 33.235 622.205 33.202C622.587 33.197 623.182 32.826 623.279 32.513C623.363 32.236 622.979 31.646 622.643 31.458C620.023 29.977 617.418 28.414 614.668 27.173C613.275 26.545 611.591 26.446 610.011 26.268C608.747 26.119 607.443 26.21 606.158 26.191L606.083 25.637C609.005 24.914 611.919 24.189 614.847 23.474C615.041 23.433 615.297 23.445 615.457 23.532C619.989 25.916 624.977 25.042 629.788 25.396C631.382 25.512 632.983 25.606 634.586 25.657C635.37 25.683 636.159 25.573 637 25.199C633.612 22.66 629.668 21.413 625.567 21.357ZM625.959 12.072C624.595 13.534 623.038 14.824 621.566 16.199C624.422 9.98297 629.057 5.32797 634.857 1.02197C632.9 8.58197 625.633 17.056 620.673 17.581C624.718 14.831 627.775 11.56 629.877 7.51198C628.496 8.96698 627.325 10.6 625.959 12.072ZM595.529 24.684C597.676 16.907 603.454 12.859 611.332 11.038C605.889 16.281 600.438 21.531 594.989 26.779C599.063 22.263 601.613 16.452 607.434 13.442C601.594 15.368 599.153 20.613 595.529 24.684ZM608.828 27.424C614.685 25.823 617.69 31.104 622.421 32.279C616.178 33.533 611.285 30.673 606.49 27.506C610.507 28.956 614.525 30.405 618.544 31.855C618.614 31.677 618.693 31.499 618.765 31.323C615.453 30.023 612.139 28.72 608.828 27.424ZM608.782 22.179C609.321 18.042 612.541 14.008 616.026 12.903C615.471 13.768 615.147 14.524 614.6 15.056C613.504 16.114 612.102 16.922 611.16 18.076C610.167 19.291 609.558 20.799 608.782 22.179ZM618.156 24.279C618.17 24.046 618.183 23.819 618.187 23.583C621.834 23.641 625.47 23.694 629.117 23.752C629.134 23.639 629.146 23.533 629.152 23.419C627.654 23.231 626.155 22.986 624.648 22.875C623.144 22.757 621.629 22.776 619.668 22.723C624.429 21.309 631.84 22.514 634.766 24.979C629.217 24.749 623.691 24.515 618.156 24.279Z" fill="#E09172"/>
<path d="M49.2612 28.306H589.212" stroke="#E09172" stroke-miterlimit="10"/>
</svg>
