<svg width="1976" height="265" viewBox="0 0 1976 265" fill="none" xmlns="http://www.w3.org/2000/svg">
<g filter="url(#filter0_d)">
<path d="M43.2826 169.001C43.2826 173.761 41.8164 178.665 38.9586 183.738C38.6158 184.413 38.2832 185.105 37.9506 185.846C37.5976 186.568 37.4448 187.427 37.4448 188.416C37.4448 190.54 38.1983 192.349 39.7087 193.821C41.2428 195.31 43.1943 196.492 45.5769 197.388C47.8985 198.284 50.4304 198.943 53.1355 199.348C55.8405 199.763 58.3691 199.968 60.7415 199.968C66.6641 199.968 71.7212 198.759 75.9298 196.292C80.169 193.824 82.2529 189.483 82.2529 183.26C82.2529 180.47 81.8151 178.013 80.8715 175.879C79.9585 173.761 78.3871 171.699 76.1979 169.742C74.0054 167.765 71.2189 165.789 67.8384 163.829C64.458 161.853 60.3207 159.662 55.4265 157.195C46.4764 152.768 39.0129 148.677 32.9952 144.925C27.0183 141.137 22.2566 137.533 18.7166 134.114C15.1664 130.659 12.6344 127.256 11.0902 123.893C9.5866 120.536 8.83314 116.982 8.83314 113.19C8.83314 107.953 10.0821 103.157 12.631 98.8352C15.1664 94.4904 18.7879 90.7122 23.5293 87.5071C28.2436 84.3284 33.9354 81.8711 40.6013 80.1418C47.274 78.4322 54.7578 77.5724 63.0019 77.5724C70.4484 77.5724 77.5691 78.3136 84.4149 79.7728C91.2607 81.2387 97.2478 83.4687 102.397 86.4168C107.538 89.3716 111.662 93.0246 114.68 97.3397C117.717 101.701 119.231 106.662 119.231 112.215C119.231 118.118 117.548 122.921 114.187 126.61C110.797 130.28 106.323 132.124 100.761 132.124C95.3369 132.124 90.7923 130.491 87.1097 127.22C83.3763 123.929 81.53 119.433 81.53 113.701C81.53 110.256 82.0425 107.202 83.1489 104.59C84.2622 101.968 85.2227 100.008 86.0814 98.6936C87.4152 96.0979 88.0906 94.4608 88.0906 93.7756C88.0906 92.1517 86.4276 90.0798 83.0268 87.6323C79.6565 85.1816 75.3427 83.943 70.1362 83.943C64.699 83.943 60.1204 85.5406 56.3123 88.7391C52.5144 91.9475 50.6171 95.9925 50.6171 100.91C50.6171 104.181 51.4554 107.176 53.1423 109.9C54.8359 112.594 56.8553 114.973 59.2345 117.025C61.6036 119.047 64.088 120.809 66.698 122.292C69.325 123.771 71.5447 125.009 73.4114 125.971C83.5324 131.06 91.8139 135.682 98.2388 139.875C104.667 144.042 109.711 147.86 113.424 151.305C117.157 154.725 119.726 158.025 121.155 161.128C122.584 164.241 123.297 167.429 123.297 170.717C123.297 176.112 121.695 181.113 118.508 185.705C115.27 190.296 110.899 194.223 105.339 197.497C99.7322 200.788 93.2394 203.318 85.8234 205.119C78.3871 206.928 70.4485 207.827 62.0109 207.827C55.4231 207.827 48.7199 207.168 41.8741 205.867C35.0487 204.536 28.7934 202.458 23.1356 199.612C17.4879 196.736 12.8517 192.968 9.32188 188.284C5.78869 183.629 4 177.918 4 171.201C4 164.659 5.78869 159.372 9.32188 155.364C12.8551 151.335 17.8511 149.345 24.2488 149.345C30.7043 149.345 35.4458 151.223 38.5954 154.972C41.6806 158.763 43.2826 163.421 43.2826 169.001Z" fill="white"/>
<path d="M155.448 96.2459C153.602 96.2459 151.308 97.0332 148.623 98.5682C145.891 100.139 143.179 102.234 140.511 104.87C140.511 101.727 141.397 98.6967 143.159 95.7683C144.927 92.8202 147.279 90.1421 150.137 87.7836C152.991 85.3889 156.399 83.5047 160.39 82.1015C164.341 80.7279 168.454 80.0427 172.67 80.0427C176.393 80.0427 180.069 80.5961 183.677 81.7589C187.312 82.8887 190.522 84.5687 193.302 86.7592C196.112 88.9958 198.318 91.6936 200.022 94.8987C201.695 98.0938 202.564 101.727 202.564 105.828V167.281C202.564 172.841 203.162 177.641 204.326 181.669C205.507 185.662 207.041 188.988 208.887 191.604C210.734 194.229 212.848 196.169 215.211 197.388C217.583 198.627 219.952 199.236 222.314 199.236C224.999 199.236 227.504 198.627 229.788 197.388C232.045 196.169 234.129 194.562 235.975 192.586C237.849 190.619 239.488 188.465 240.944 186.09C242.346 183.695 243.496 181.442 244.328 179.317V105.828C244.328 102.715 243.707 100.33 242.434 98.6934C241.175 97.0661 239.624 96.2426 237.778 96.2426C235.901 96.2426 233.616 97.0299 230.922 98.5649C228.23 100.136 225.515 102.231 222.81 104.866C222.81 101.724 223.696 98.6934 225.464 95.765C227.256 92.8169 229.55 90.1388 232.435 87.7803C235.3 85.3856 238.738 83.5014 242.719 82.0982C246.68 80.7246 250.753 80.0394 255.002 80.0394C258.695 80.0394 262.36 80.5928 266.009 81.7556C269.624 82.8854 272.855 84.5654 275.645 86.7559C278.421 88.9925 280.661 91.6903 282.345 94.8954C284.011 98.0906 284.849 101.724 284.849 105.825V180.816C284.849 183.893 285.447 186.083 286.638 187.292C287.846 188.547 289.238 189.14 290.942 189.14C293.141 189.14 295.588 188.382 298.3 186.811C301.002 185.256 303.69 183.161 306.381 180.536C306.381 183.659 305.505 186.699 303.724 189.647C301.962 192.576 299.593 195.257 296.654 197.622C293.674 199.997 290.209 201.881 286.254 203.284C282.294 204.645 278.105 205.363 273.737 205.363C267.804 205.363 262.265 204.052 257.008 201.427C251.771 198.821 248.153 194.875 246.096 189.647C241.908 195.856 236.766 200.458 230.674 203.406C224.581 206.361 217.732 207.824 210.167 207.824C203.236 207.824 196.808 206.677 190.909 204.375C185.007 202.095 179.882 199.062 175.589 195.303C171.268 191.525 167.945 187.18 165.603 182.256C163.221 177.361 162.033 172.36 162.033 167.278V105.828C162.033 102.715 161.402 100.33 160.159 98.6934C158.849 97.0694 157.295 96.2459 155.448 96.2459Z" fill="white"/>
<path d="M322.621 228.721C322.621 223.826 324.155 219.62 327.278 216.181C330.407 212.745 334.667 211.026 340.053 211.026C345.463 211.026 349.916 212.827 353.385 216.431C356.809 220.025 358.554 224.719 358.554 230.437C358.554 233.375 357.99 236.047 356.792 238.425C355.611 240.813 353.585 243.541 350.7 246.67C354.603 248.149 358.707 249.17 362.983 249.737C367.304 250.313 372.398 250.603 378.348 250.603C390.485 250.603 400.816 249.648 409.349 247.767C417.888 245.886 424.829 243.518 430.246 240.649C435.622 237.763 439.614 234.683 442.135 231.307C444.66 227.953 445.947 224.785 445.947 221.853C445.947 217.752 443.462 214.379 438.463 211.763C433.501 209.138 425.172 207.83 413.517 207.83H364.904C358.306 207.83 352.529 207.053 347.55 205.498C342.551 203.937 338.478 201.842 335.267 199.233C332.05 196.598 329.65 193.627 328.069 190.27C326.45 186.907 325.642 183.422 325.642 179.792C325.642 176.208 326.327 172.983 327.678 170.098C329.022 167.245 330.848 164.692 333.115 162.475C335.4 160.268 337.983 158.345 340.847 156.701C343.701 155.074 346.664 153.661 349.692 152.534C343.284 148.762 338.726 144.243 336.031 139.006C333.326 133.768 331.968 128.037 331.968 121.811C331.968 109.521 336.574 99.4578 345.789 91.6872C354.97 83.8969 368.878 80.033 387.44 80.033C396.048 80.033 403.779 80.8467 410.632 82.464C417.447 84.111 422.81 86.1698 426.713 88.6271C427.541 85.6592 428.759 82.6386 430.378 79.5258C431.967 76.4129 433.939 73.6295 436.338 71.1623C438.673 68.705 441.429 66.6923 444.555 65.1475C447.688 63.5762 451.085 62.812 454.798 62.812C458.691 62.812 462.357 63.8826 465.815 66.0006C469.281 68.1516 471.022 71.8211 471.022 77.0586C471.022 79.8288 470.319 82.2697 468.992 84.3218C467.641 86.3641 465.452 87.3984 462.408 87.3984C459.52 87.3984 457.229 86.4366 455.457 84.5623C453.668 82.6781 452.772 80.1088 452.772 76.8181C452.772 74.8615 453.04 73.2606 453.532 72.022C454.045 70.8033 454.571 69.7788 455.073 68.9619C453.037 69.12 450.963 69.5186 448.849 70.1741C446.731 70.8395 444.705 72.022 442.767 73.7415C440.835 75.4577 438.938 77.8063 437.102 80.7446C435.215 83.6993 433.552 87.5434 432.018 92.3032C436.416 96.0913 439.559 100.324 441.507 105.081C443.462 109.847 444.43 114.821 444.43 120.095C444.43 132.052 439.688 141.865 430.243 149.573C420.77 157.277 406.277 161.121 386.656 161.121C380.934 161.121 375.575 160.713 370.613 159.893C365.603 159.079 360.93 157.768 356.524 155.976C354.162 156.8 351.582 157.936 348.806 159.405C346.016 160.884 344.635 162.768 344.635 165.058C344.635 165.875 344.92 166.771 345.531 167.759C346.121 168.757 347.17 169.653 348.701 170.476C350.215 171.3 352.261 171.982 354.888 172.555C357.525 173.148 360.848 173.425 364.904 173.425H413.517C426.197 173.425 436.44 176.62 444.297 183.007C452.161 189.4 456.064 198.4 456.064 210.06C456.064 216.925 454.571 223.23 451.506 228.965C448.479 234.716 443.897 239.673 437.852 243.84C431.76 247.997 424.208 251.252 415.183 253.541C406.118 255.84 395.532 257 383.385 257C377.968 257 371.78 256.657 364.755 256.008C357.756 255.353 351.138 253.983 344.903 251.934C338.658 249.888 333.373 247.039 329.08 243.343C324.753 239.68 322.621 234.792 322.621 228.721ZM369.958 120.576C369.958 127.615 370.423 133.393 371.366 137.899C372.289 142.428 373.576 145.93 375.259 148.479C376.956 151.019 378.904 152.738 381.117 153.634C383.276 154.537 385.676 154.972 388.187 154.972C390.712 154.972 393.108 154.537 395.27 153.634C397.48 152.738 399.432 151.019 401.125 148.479C402.812 145.93 404.088 142.428 405.028 137.899C405.962 133.389 406.43 127.615 406.43 120.576C406.43 113.526 405.962 107.752 405.028 103.252C404.088 98.7528 402.812 95.2151 401.125 92.6721C399.432 90.139 397.48 88.4031 395.27 87.5071C393.108 86.6112 390.712 86.1764 388.187 86.1764C385.676 86.1764 383.276 86.6112 381.117 87.5071C378.908 88.4031 376.956 90.139 375.259 92.6721C373.572 95.2118 372.289 98.7528 371.366 103.252C370.423 107.752 369.958 113.526 369.958 120.576Z" fill="white"/>
<path d="M477.865 173.428C477.865 165.064 480.302 158.476 485.196 153.638C490.09 148.795 496.125 145.198 503.303 142.817C510.461 140.442 518.118 138.979 526.226 138.399C534.328 137.807 541.584 137.53 548.009 137.53C550.019 137.53 551.912 137.53 553.674 137.53C555.473 137.53 557.197 137.464 558.88 137.299V130.138C558.88 120.49 558.252 112.598 556.986 106.458C555.727 100.285 553.911 95.4226 551.549 91.8124C549.18 88.2088 546.265 85.7053 542.799 84.3284C539.344 82.9252 535.441 82.2433 531.053 82.2433C527.502 82.2433 524.434 82.6485 521.916 83.472C523.942 86.9076 525.34 90.3565 526.091 93.7822C526.844 97.2277 527.217 100.176 527.217 102.636C527.217 109.047 525.371 113.981 521.675 117.502C517.962 121.03 513.4 122.786 507.987 122.786C502.414 122.786 497.893 121.113 494.438 117.749C490.972 114.396 489.248 110.107 489.248 104.87C489.248 101.414 490.144 98.0512 491.913 94.7803C493.674 91.4863 496.406 88.5975 500.15 86.0479C503.843 83.5049 508.611 81.4528 514.429 79.8914C520.277 78.3399 527.217 77.5724 535.336 77.5724C545.647 77.5724 554.77 78.867 562.709 81.489C570.647 84.1143 577.334 87.7805 582.825 92.4383C588.307 97.1059 592.451 102.633 595.237 109.043C598.01 115.411 599.398 122.46 599.398 130.138V179.314C599.398 182.437 599.999 184.904 601.16 186.706C602.361 188.498 603.98 189.404 606.01 189.404C607.856 189.404 610.093 188.616 612.72 187.055C615.337 185.504 618.004 183.425 620.699 180.82C620.699 183.896 619.851 186.953 618.157 189.881C616.474 192.839 614.179 195.475 611.311 197.764C608.457 200.043 605.199 201.885 601.564 203.288C597.946 204.648 594.175 205.367 590.282 205.367C583.731 205.367 577.982 203.472 573.098 199.721C568.166 195.932 564.728 191.192 562.712 185.461C558.969 192.345 553.973 197.797 547.639 201.796C541.299 205.818 534.063 207.824 525.972 207.824C510.101 207.824 498.107 204.645 490.005 198.367C481.921 192.055 477.865 183.738 477.865 173.428ZM535.597 198.755C538.462 198.755 541.119 198.08 543.594 196.766C546.031 195.475 548.213 193.818 550.144 191.871C552.096 189.881 553.789 187.806 555.218 185.589C556.654 183.382 557.876 181.281 558.884 179.314V143.673C555.008 143.673 551.325 143.755 547.745 143.914C544.215 144.108 541.852 144.246 540.675 144.414C534.582 145.238 529.773 148.601 526.23 154.494C522.669 160.407 520.911 167.762 520.911 176.623C520.911 185.309 522.442 191.159 525.449 194.17C528.524 197.22 531.867 198.755 535.597 198.755Z" fill="white"/>
<path d="M640.694 96.2461C638.488 96.2461 636.061 97.0334 633.363 98.5684C630.648 100.14 627.946 102.235 625.241 104.87C625.241 101.727 626.127 98.6968 627.916 95.7685C629.698 92.8203 632.019 90.1423 634.999 87.7838C637.942 85.3891 641.431 83.5049 645.388 82.1017C649.342 80.7281 653.51 80.0429 657.926 80.0429C664.001 80.0429 669.747 81.4923 675.252 84.4602C680.737 87.4083 684.43 91.7234 686.286 97.4781C690.665 92.0726 695.902 87.8497 701.963 84.8027C708.059 81.7887 714.46 80.2834 721.228 80.2834C725.433 80.2834 729.367 80.8928 733.015 82.1017C736.633 83.3402 739.803 85.0399 742.515 87.1546C745.193 89.2727 747.308 91.7662 748.838 94.6485C750.369 97.5044 751.136 100.601 751.136 103.862C751.136 109.277 749.174 113.777 745.285 117.371C741.395 121.004 736.498 122.786 730.599 122.786C727.215 122.786 724.371 122.176 722.114 120.964C719.83 119.726 717.98 118.154 716.544 116.28C715.115 114.396 714.07 112.215 713.5 109.758C712.896 107.321 712.61 104.873 712.61 102.406C712.61 99.1152 713.021 95.9628 713.88 92.9356C714.728 89.9018 715.658 87.7311 716.646 86.4201C714.304 86.4201 711.725 87.0756 708.945 88.38C706.152 89.7009 703.382 91.4105 700.585 93.5351C697.816 95.6696 695.223 98.015 692.854 100.558C690.505 103.091 688.655 105.601 687.284 108.035V179.571C687.284 183.175 687.366 186.334 687.518 189.041C687.712 191.729 688.255 193.913 689.195 195.547C690.101 197.194 691.635 198.413 693.746 199.243C695.851 200.057 698.766 200.472 702.466 200.472V204.141H631.578V200.472C635.461 200.472 638.403 200.057 640.423 199.243C642.459 198.413 643.942 197.191 644.879 195.547C645.795 193.913 646.338 191.733 646.515 189.041C646.678 186.334 646.742 183.175 646.742 179.571V104.59C646.742 101.487 646.172 99.3062 644.981 98.094C643.817 96.8456 642.378 96.2461 640.694 96.2461Z" fill="white"/>
<path d="M785.544 30.6228C789.111 30.6228 792.654 31.1037 796.184 32.0755C799.738 33.09 802.904 34.5789 805.657 36.6508C808.477 38.6832 810.714 41.2591 812.398 44.3917C814.091 47.5046 814.919 51.1115 814.919 55.1829V87.4015C816.277 86.4133 817.577 85.5173 818.853 84.6971C820.129 83.8736 821.432 83.1358 822.773 82.4704C825.305 81.1758 828.428 80.0394 832.144 79.0248C835.864 78.0564 840.273 77.5755 845.32 77.5755C853.262 77.5755 860.573 78.9425 867.225 81.7622C873.881 84.5357 879.644 88.6367 884.45 94.0356C889.252 99.4312 893.006 106.204 895.711 114.327C898.416 122.41 899.74 131.884 899.74 142.711C899.74 153.522 898.416 162.995 895.711 171.099C893.006 179.209 889.398 185.965 884.816 191.37C880.258 196.775 874.895 200.876 868.739 203.667C862.561 206.457 855.96 207.837 848.89 207.837C840.079 207.837 832.433 205.831 825.943 201.809C819.461 197.81 814.329 192.118 810.629 184.723C810.439 184.907 810.365 185.065 810.365 185.233C810.365 185.388 810.3 185.546 810.13 185.714C809.435 187.691 808.23 189.799 806.567 192.118C804.873 194.417 802.854 196.535 800.505 198.492C798.136 200.468 795.438 202.105 792.39 203.419C789.342 204.727 786.039 205.376 782.51 205.376C779.974 205.376 777.273 204.968 774.405 204.141V55.1829C774.405 52.0898 773.804 49.8993 772.636 48.6871C771.435 47.4486 770.009 46.8293 768.323 46.8293C766.096 46.8293 763.686 47.6264 760.975 49.1581C758.28 50.7195 755.575 52.8277 752.87 55.4629C752.87 52.3204 753.745 49.2965 755.507 46.3484C757.282 43.4101 759.678 40.7321 762.638 38.3769C765.587 35.9756 769.035 34.098 772.996 32.6947C776.981 31.3145 781.138 30.6228 785.544 30.6228ZM814.919 95.5179V179.314C815.941 181.439 817.166 183.692 818.595 186.086C820.041 188.461 821.64 190.576 823.404 192.464C825.203 194.368 827.172 195.909 829.361 197.148C831.554 198.376 834.028 198.986 836.706 198.986C839.258 198.986 841.675 198.248 844.033 196.769C846.402 195.31 848.52 192.464 850.356 188.287C852.24 184.13 853.744 178.309 854.945 170.845C856.116 163.387 856.717 153.667 856.717 141.72C856.717 129.911 856.113 120.374 854.945 113.085C853.744 105.792 852.186 100.083 850.258 95.9988C848.307 91.9143 846.026 89.1177 843.416 87.6387C840.785 86.1761 838.053 85.4317 835.185 85.4317C830.797 85.4317 826.999 86.4923 823.795 88.6367C820.574 90.7581 817.635 93.0507 814.919 95.5179Z" fill="white"/>
<path d="M994.498 77.5724C1004.96 77.5724 1014.37 79.0218 1022.75 81.9897C1031.06 84.9378 1038.18 89.2266 1044.02 94.8989C1049.8 100.555 1054.28 107.4 1057.43 115.411C1060.53 123.458 1062.11 132.543 1062.11 142.705C1062.11 152.86 1060.53 161.961 1057.43 169.982C1054.28 178.013 1049.8 184.848 1044.02 190.504C1038.18 196.17 1031.07 200.465 1022.75 203.413C1014.37 206.368 1004.96 207.83 994.498 207.83C984.004 207.83 974.609 206.368 966.257 203.413C957.914 200.462 950.81 196.17 944.973 190.504C939.145 184.848 934.682 178.013 931.58 169.982C928.43 161.961 926.893 152.86 926.893 142.705C926.893 132.543 928.43 123.458 931.58 115.411C934.682 107.4 939.145 100.555 944.973 94.8989C950.814 89.2266 957.914 84.9378 966.257 81.9897C974.609 79.0218 984.007 77.5724 994.498 77.5724ZM994.498 201.674C997.373 201.674 1000.24 200.87 1003.1 199.233C1005.97 197.589 1008.6 194.559 1010.97 190.142C1013.33 185.708 1015.25 179.683 1016.78 172.061C1018.29 164.439 1019.05 154.652 1019.05 142.705C1019.05 130.731 1018.29 120.964 1016.78 113.332C1015.25 105.72 1013.33 99.6917 1010.97 95.248C1008.6 90.8209 1005.97 87.8102 1003.1 86.1731C1000.24 84.5294 997.37 83.7059 994.498 83.7059C991.627 83.7059 988.766 84.5294 985.871 86.1731C983.003 87.8102 980.389 90.8209 978.054 95.248C975.675 99.6917 973.72 105.72 972.206 113.332C970.676 120.964 969.926 130.731 969.926 142.705C969.926 154.652 970.676 164.439 972.206 172.061C973.717 179.683 975.672 185.708 978.054 190.142C980.389 194.559 983.003 197.589 985.871 199.233C988.766 200.87 991.627 201.674 994.498 201.674Z" fill="white"/>
<path d="M1071.48 104.59C1071.48 101.651 1072.33 98.6934 1074 95.765C1075.71 92.8169 1078.06 90.1388 1081.1 87.7803C1084.15 85.3856 1087.86 83.5014 1092.25 82.0982C1096.65 80.7246 1101.61 80.0394 1107.21 80.0394C1113.94 80.0394 1119.8 81.2385 1124.8 83.7057C1129.78 86.1729 1133.96 90.0828 1137.33 95.5146L1156.07 124.759L1183.42 90.5868C1183.95 89.9214 1184.24 89.4142 1184.31 88.9892C1184.42 88.5907 1184.44 88.202 1184.44 87.8824C1184.44 87.0655 1183.95 86.4858 1182.94 86.1696C1181.91 85.827 1180.67 85.5437 1179.27 85.3131C1177.81 85.0463 1176.3 84.9343 1174.71 84.9343C1173.1 84.9343 1171.63 84.9343 1170.26 84.9343H1168.23V81.2352H1208.74V84.9343C1203.03 84.9343 1199.1 85.5174 1196.98 86.6538C1194.85 87.81 1193.13 89.2659 1191.77 91.0875L1159.88 130.892L1194.33 184.713C1195.16 185.879 1196.3 186.765 1197.74 187.421C1199.18 188.076 1200.57 188.409 1201.9 188.409C1204.46 188.409 1206.97 187.421 1209.51 185.457C1212.05 183.491 1213.9 181.936 1215.06 180.809C1215.06 183.57 1214.37 186.39 1212.94 189.275C1211.51 192.138 1209.32 194.753 1206.34 197.138C1203.38 199.513 1199.77 201.473 1195.44 203.034C1191.16 204.579 1186.14 205.363 1180.38 205.363C1174.99 205.363 1169.92 204.371 1165.21 202.415C1160.44 200.455 1156.34 196.667 1152.8 191.113L1132.27 158.924L1103.4 194.802C1102.89 195.471 1102.66 196.015 1102.66 196.522C1102.66 197.49 1103.19 198.238 1104.29 198.749C1105.4 199.23 1106.69 199.608 1108.21 199.839C1109.74 200.079 1111.25 200.264 1112.78 200.34C1114.3 200.432 1115.45 200.458 1116.32 200.458H1118.33V204.128H1077.82V200.458C1083.56 200.458 1087.52 199.878 1089.73 198.749C1091.92 197.583 1093.68 196.113 1095.04 194.302L1128.23 152.758L1095.81 102.122C1094.28 99.8397 1092.51 98.3903 1090.48 97.8073C1088.45 97.2539 1087.02 96.9574 1086.19 96.9574C1083.81 96.9574 1081.28 97.7414 1078.57 99.2962C1075.89 100.867 1073.51 102.633 1071.48 104.59Z" fill="white"/>
<path d="M1423.15 156.24C1426.42 201.193 1396.82 206.846 1379.61 206.846C1362.88 206.846 1347.69 200.712 1334.02 190.88C1322.39 201.43 1307.71 206.846 1285.17 206.846C1256.82 206.846 1223.19 187.203 1226.46 154.03C1228.75 132.167 1245.69 120.128 1263.93 115.213C1241.13 83.7685 1245.19 29.714 1305.17 29.714C1328.96 29.714 1349.74 38.8153 1350.49 59.2085C1351.26 80.323 1332.02 92.6129 1315.8 97.2871C1328.71 113.013 1344.14 129.213 1360.87 140.751L1364.14 131.917C1370.73 117.17 1380.37 100.963 1397.33 99.2438C1410.46 98.0052 1423.4 103.43 1426.41 116.191C1429.96 131.169 1419.08 144.457 1404.41 143.726C1372.76 141.99 1383.89 106.138 1373.75 119.387C1370.48 123.573 1365.43 133.883 1362.12 141.987C1381.61 155.262 1402.39 162.386 1423.15 156.24ZM1332.03 189.404C1326.45 185.227 1279.35 140.755 1265.44 117.433C1259.63 134.868 1265.7 155.502 1276.57 168.77C1291.52 186.953 1315.07 198.005 1332.03 189.404ZM1314.3 95.314C1316.34 87.4414 1319.35 77.6285 1317.59 57.993C1316.08 40.5414 1307.72 29.4768 1297.6 32.6852C1276.57 39.8101 1314.04 94.8331 1314.3 95.314Z" fill="white"/>
<path d="M1514.43 77.5724C1522.71 77.5724 1529.76 78.3399 1535.56 79.8914C1541.41 81.4528 1546.15 83.5049 1549.9 86.0479C1553.59 88.5975 1556.3 91.4863 1557.98 94.7803C1559.68 98.0512 1560.55 101.414 1560.55 104.87C1560.55 110.107 1558.8 114.396 1555.33 117.749C1551.87 121.113 1547.35 122.786 1541.8 122.786C1536.36 122.786 1531.81 121.03 1528.11 117.502C1524.39 113.981 1522.54 109.047 1522.54 102.636C1522.54 100.176 1522.91 97.3134 1523.67 94.0326C1524.45 90.7616 1525.82 87.405 1527.85 83.9496C1525.81 83.136 1523.56 82.721 1521.01 82.721C1517.82 82.721 1514.29 83.6268 1510.5 85.4286C1506.7 87.2272 1503.21 90.3532 1499.97 94.7803C1496.79 99.1877 1494.08 105.212 1491.89 112.831C1489.68 120.447 1488.6 130.138 1488.6 141.957C1488.6 153.763 1489.68 163.424 1491.89 170.961C1494.08 178.501 1496.86 184.443 1500.25 188.784C1503.64 193.126 1507.25 196.17 1511.14 197.876C1515.02 199.612 1518.71 200.462 1522.25 200.462C1528.19 200.462 1534.66 198.624 1541.8 194.924C1548.88 191.248 1555.38 186.528 1561.29 180.816C1561.29 183.893 1560.41 187.052 1558.62 190.27C1556.86 193.439 1554 196.361 1550.12 198.983C1546.25 201.608 1541.3 203.739 1535.31 205.366C1529.3 207 1522.1 207.827 1513.67 207.827C1491.89 207.827 1475.09 202.224 1463.27 191.008C1451.46 179.782 1445.55 163.678 1445.55 142.701C1445.55 122.216 1451.37 106.224 1463.01 94.777C1474.67 83.3007 1491.81 77.5724 1514.43 77.5724Z" fill="white"/>
<path d="M1646.61 77.5724C1657.07 77.5724 1666.49 79.0218 1674.87 81.9897C1683.21 84.9378 1690.29 89.2266 1696.13 94.8989C1701.95 100.555 1706.43 107.4 1709.55 115.411C1712.67 123.458 1714.24 132.543 1714.24 142.705C1714.24 152.86 1712.67 161.961 1709.55 169.982C1706.43 178.013 1701.95 184.848 1696.13 190.504C1690.29 196.17 1683.21 200.465 1674.87 203.413C1666.49 206.368 1657.07 207.83 1646.61 207.83C1636.15 207.83 1626.75 206.368 1618.36 203.413C1610.03 200.462 1602.95 196.17 1597.12 190.504C1591.25 184.848 1586.79 178.013 1583.69 169.982C1580.54 161.961 1579 152.86 1579 142.705C1579 132.543 1580.54 123.458 1583.69 115.411C1586.79 107.4 1591.25 100.555 1597.12 94.8989C1602.95 89.2266 1610.03 84.9378 1618.36 81.9897C1626.75 79.0218 1636.15 77.5724 1646.61 77.5724ZM1646.61 201.674C1649.5 201.674 1652.35 200.87 1655.21 199.233C1658.09 197.589 1660.72 194.559 1663.08 190.142C1665.44 185.708 1667.39 179.683 1668.91 172.061C1670.42 164.439 1671.17 154.652 1671.17 142.705C1671.17 130.731 1670.42 120.964 1668.91 113.332C1667.39 105.72 1665.44 99.6917 1663.08 95.248C1660.72 90.8209 1658.09 87.8102 1655.21 86.1731C1652.35 84.5294 1649.49 83.7059 1646.61 83.7059C1643.73 83.7059 1640.88 84.5294 1638.02 86.1731C1635.13 87.8102 1632.5 90.8209 1630.16 95.248C1627.8 99.6917 1625.85 105.72 1624.33 113.332C1622.8 120.964 1622.04 130.731 1622.04 142.705C1622.04 154.652 1622.8 164.439 1624.33 172.061C1625.85 179.683 1627.8 185.708 1630.16 190.142C1632.5 194.559 1635.13 197.589 1638.02 199.233C1640.88 200.87 1643.73 201.674 1646.61 201.674Z" fill="white"/>
<path d="M1774.26 188.175C1774.26 193.07 1772.35 197.385 1768.59 201.055C1764.77 204.761 1760.34 206.609 1755.27 206.609C1750.21 206.609 1745.79 204.761 1741.96 201.055C1738.18 197.385 1736.27 193.07 1736.27 188.175C1736.27 183.257 1738.18 178.932 1741.96 175.26C1745.79 171.58 1750.21 169.742 1755.27 169.742C1760.34 169.742 1764.77 171.583 1768.59 175.26C1772.36 178.932 1774.26 183.257 1774.26 188.175Z" fill="white"/>
<path d="M50.5972 169.001C50.5972 173.761 49.131 178.665 46.2732 183.738C45.9338 184.413 45.5978 185.105 45.2652 185.846C44.9258 186.568 44.7628 187.427 44.7628 188.416C44.7628 190.54 45.5129 192.349 47.0267 193.821C48.5608 195.31 50.5089 196.492 52.8915 197.388C55.2266 198.284 57.7484 198.943 60.4534 199.348C63.1585 199.763 65.6803 199.968 68.0527 199.968C73.9922 199.968 79.0358 198.759 83.2546 196.292C87.4802 193.824 89.5743 189.483 89.5743 183.26C89.5743 180.47 89.1161 178.013 88.1929 175.879C87.2799 173.761 85.7017 171.699 83.5125 169.742C81.3302 167.765 78.5335 165.789 75.153 163.829C71.7726 161.853 67.6318 159.662 62.7376 157.195C53.791 152.768 46.3343 148.677 40.3201 144.925C34.3398 141.137 29.5711 137.533 26.0379 134.114C22.4776 130.659 19.9457 127.256 18.4115 123.893C16.9114 120.536 16.1477 116.982 16.1477 113.19C16.1477 107.953 17.3967 103.157 19.9491 98.8352C22.481 94.4904 26.1092 90.7122 30.8575 87.5071C35.5616 84.3284 41.2534 81.8711 47.9159 80.1418C54.6021 78.4322 62.0758 77.5724 70.3301 77.5724C77.763 77.5724 84.8973 78.3136 91.7329 79.7728C98.5787 81.2387 104.566 83.4687 109.704 86.4168C114.867 89.3716 118.977 93.0246 121.998 97.3397C125.045 101.701 126.549 106.662 126.549 112.215C126.549 118.118 124.855 122.921 121.512 126.61C118.125 130.28 113.641 132.124 108.068 132.124C102.662 132.124 98.1205 130.491 94.4176 127.22C90.7079 123.929 88.8581 119.433 88.8581 113.701C88.8581 110.256 89.3741 107.202 90.4703 104.59C91.5836 101.968 92.5441 100.008 93.4028 98.6936C94.7468 96.0979 95.412 94.4608 95.412 93.7756C95.412 92.1517 93.7354 90.0798 90.3753 87.6323C86.9779 85.1816 82.664 83.943 77.4576 83.943C72.0102 83.943 67.4316 85.5406 63.6438 88.7391C59.8425 91.9475 57.9385 95.9925 57.9385 100.91C57.9385 104.181 58.7802 107.176 60.4636 109.9C62.1607 112.594 64.1869 114.973 66.5559 117.025C68.9284 119.047 71.423 120.809 74.0296 122.292C76.6566 123.771 78.8661 125.009 80.7328 125.971C90.8504 131.06 99.1353 135.682 105.564 139.875C111.988 144.042 117.025 147.86 120.759 151.305C124.472 154.725 127.051 158.025 128.48 161.128C129.916 164.241 130.618 167.429 130.618 170.717C130.618 176.112 129.02 181.113 125.829 185.705C122.595 190.296 118.223 194.223 112.664 197.497C107.074 200.788 100.564 203.318 93.1482 205.119C85.7153 206.928 77.7732 207.827 69.3459 207.827C62.7478 207.827 56.048 207.168 49.1988 205.867C42.3836 204.536 36.1182 202.458 30.4638 199.612C24.8161 196.736 20.19 192.968 16.6399 188.284C13.1168 183.629 11.335 177.918 11.335 171.201C11.335 164.659 13.1168 159.372 16.6399 155.364C20.19 151.335 25.1793 149.345 31.5872 149.345C38.0427 149.345 42.7739 151.223 45.9236 154.972C48.9986 158.763 50.5972 163.421 50.5972 169.001Z" fill="#E2A379"/>
<path d="M162.771 96.246C160.924 96.246 158.63 97.0332 155.955 98.5682C153.223 100.139 150.511 102.234 147.833 104.87C147.833 101.727 148.719 98.6967 150.477 95.7683C152.249 92.8202 154.601 90.1422 157.459 87.7837C160.327 85.389 163.735 83.5048 167.712 82.1015C171.673 80.7279 175.773 80.0428 179.992 80.0428C183.715 80.0428 187.391 80.5962 190.999 81.759C194.644 82.8888 197.845 84.5687 200.621 86.7593C203.431 88.9959 205.641 91.6937 207.341 94.8987C209.028 98.0939 209.876 101.727 209.876 105.828V167.281C209.876 172.841 210.487 177.641 211.658 181.669C212.826 185.662 214.35 188.989 216.21 191.604C218.056 194.229 220.177 196.169 222.529 197.388C224.898 198.627 227.268 199.236 229.64 199.236C232.318 199.236 234.819 198.627 237.103 197.388C239.367 196.169 241.455 194.562 243.301 192.586C245.168 190.619 246.804 188.465 248.253 186.09C249.668 183.695 250.822 181.442 251.65 179.317V105.828C251.65 102.715 251.029 100.331 249.746 98.6934C248.497 97.0662 246.936 96.2427 245.09 96.2427C243.213 96.2427 240.918 97.0299 238.244 98.5649C235.549 100.136 232.834 102.231 230.118 104.866C230.118 101.724 231.004 98.6934 232.776 95.7651C234.575 92.8169 236.873 90.1389 239.754 87.7804C242.612 85.3857 246.05 83.5015 250.038 82.0982C253.992 80.7246 258.075 80.0395 262.311 80.0395C266.007 80.0395 269.679 80.5929 273.318 81.7557C276.936 82.8855 280.164 84.5655 282.953 86.756C285.733 88.9926 287.98 91.6904 289.657 94.8954C291.333 98.0906 292.158 101.724 292.158 105.825V180.816C292.158 183.893 292.769 186.083 293.957 187.292C295.158 188.547 296.557 189.14 298.25 189.14C300.45 189.14 302.907 188.382 305.609 186.811C308.32 185.256 310.995 183.161 313.71 180.536C313.71 183.659 312.824 186.699 311.046 189.647C309.274 192.576 306.912 195.257 303.973 197.622C300.983 199.997 297.517 201.881 293.567 203.285C289.613 204.645 285.407 205.363 281.046 205.363C275.123 205.363 269.574 204.052 264.327 201.427C259.093 198.821 255.472 194.875 253.405 189.647C249.217 195.857 244.075 200.458 237.982 203.406C231.89 206.361 225.055 207.824 217.476 207.824C210.552 207.824 204.127 206.677 198.225 204.375C192.312 202.095 187.191 199.062 182.907 195.303C178.573 191.525 175.244 187.18 172.912 182.256C170.533 177.361 169.331 172.36 169.331 167.278V105.828C169.331 102.715 168.72 100.331 167.465 98.6934C166.171 97.0695 164.617 96.246 162.771 96.246Z" fill="#E2A379"/>
<path d="M329.95 228.721C329.95 223.826 331.484 219.62 334.606 216.181C337.722 212.745 341.988 211.026 347.385 211.026C352.781 211.026 357.238 212.827 360.703 216.431C364.141 220.025 365.882 224.719 365.882 230.437C365.882 233.375 365.302 236.047 364.114 238.425C362.943 240.813 360.917 243.541 358.022 246.67C361.925 248.149 366.045 249.17 370.305 249.737C374.636 250.313 379.727 250.603 385.659 250.603C397.81 250.603 408.138 249.648 416.667 247.767C425.217 245.886 432.158 243.518 437.568 240.649C442.954 237.763 446.935 234.683 449.457 231.307C451.989 227.954 453.258 224.785 453.258 221.853C453.258 217.752 450.791 214.379 445.795 211.763C440.823 209.138 432.494 207.83 420.849 207.83H372.246C365.628 207.83 359.851 207.053 354.879 205.498C349.879 203.937 345.797 201.842 342.596 199.233C339.361 196.598 336.969 193.627 335.397 190.27C333.778 186.907 332.97 183.422 332.97 179.792C332.97 176.208 333.649 172.983 334.99 170.098C336.351 167.245 338.17 164.692 340.434 162.475C342.728 160.268 345.311 158.345 348.166 156.701C351.023 155.074 353.983 153.661 357.01 152.534C350.602 148.762 346.051 144.243 343.36 139.006C340.644 133.768 339.294 128.037 339.294 121.811C339.294 109.521 343.903 99.4578 353.1 91.6873C362.295 83.897 376.187 80.0331 394.772 80.0331C403.376 80.0331 411.101 80.8467 417.954 82.4641C424.779 84.1111 430.131 86.1698 434.035 88.6272C434.863 85.6593 436.081 82.6387 437.69 79.5258C439.292 76.413 441.26 73.6296 443.66 71.1624C446.002 68.705 448.761 66.6924 451.884 65.1475C454.996 63.5763 458.417 62.8121 462.137 62.8121C466.01 62.8121 469.689 63.8826 473.144 66.0007C476.603 68.1517 478.344 71.8212 478.344 77.0586C478.344 79.8289 477.648 82.2697 476.324 84.3219C474.95 86.3642 472.771 87.3985 469.726 87.3985C466.852 87.3985 464.557 86.4366 462.785 84.5624C460.987 82.6782 460.101 80.1089 460.101 76.8182C460.101 74.8615 460.359 73.2606 460.864 72.0221C461.377 70.8033 461.903 69.7789 462.395 68.962C460.359 69.1201 458.275 69.5187 456.177 70.1742C454.063 70.8396 452.037 72.0221 450.085 73.7416C448.154 75.4577 446.267 77.8064 444.42 80.7446C442.544 83.6993 440.88 87.5434 439.336 92.3033C443.745 96.0914 446.888 100.324 448.839 105.081C450.791 109.847 451.751 114.821 451.751 120.095C451.751 132.052 447.017 141.865 437.564 149.573C428.092 157.277 413.599 161.122 393.978 161.122C388.266 161.122 382.893 160.713 377.935 159.893C372.925 159.079 368.241 157.768 363.853 155.976C361.484 156.8 358.901 157.936 356.121 159.405C353.341 160.884 351.96 162.769 351.96 165.058C351.96 165.875 352.238 166.771 352.846 167.759C353.433 168.757 354.482 169.653 356.016 170.476C357.53 171.3 359.586 171.982 362.213 172.555C364.84 173.148 368.173 173.425 372.239 173.425H420.842C433.505 173.425 443.759 176.62 451.612 183.007C459.466 189.401 463.379 198.4 463.379 210.06C463.379 216.925 461.893 223.23 458.818 228.965C455.801 234.716 451.222 239.674 445.167 243.84C439.075 247.997 431.533 251.252 422.498 253.541C413.446 255.841 402.857 257 390.7 257C385.293 257 379.102 256.657 372.066 256.008C365.068 255.353 358.463 253.983 352.218 251.934C345.983 249.888 340.688 247.039 336.402 243.343C332.085 239.68 329.95 234.792 329.95 228.721ZM377.276 120.576C377.276 127.615 377.731 133.393 378.685 137.899C379.618 142.428 380.884 145.93 382.588 148.479C384.271 151.019 386.226 152.738 388.443 153.634C390.594 154.537 392.984 154.972 395.509 154.972C398.041 154.972 400.43 154.537 402.579 153.634C404.798 152.738 406.75 151.019 408.447 148.479C410.141 145.93 411.407 142.428 412.36 137.899C413.294 133.389 413.759 127.615 413.759 120.576C413.759 113.527 413.294 107.752 412.36 103.253C411.407 98.7529 410.141 95.2152 408.447 92.6722C406.75 90.1391 404.802 88.4032 402.579 87.5072C400.43 86.6112 398.037 86.1764 395.509 86.1764C392.984 86.1764 390.598 86.6112 388.443 87.5072C386.226 88.4032 384.271 90.1391 382.588 92.6722C380.884 95.2119 379.618 98.7529 378.685 103.253C377.734 107.752 377.276 113.527 377.276 120.576Z" fill="#E2A379"/>
<path d="M485.184 173.428C485.184 165.064 487.631 158.476 492.515 153.638C497.406 148.795 503.444 145.198 510.632 142.817C517.78 140.442 525.427 138.979 533.555 138.399C541.637 137.807 548.91 137.53 555.332 137.53C557.341 137.53 559.225 137.53 561.003 137.53C562.795 137.53 564.519 137.464 566.203 137.299V130.138C566.203 120.49 565.582 112.598 564.305 106.458C563.06 100.285 561.244 95.4226 558.871 91.8124C556.502 88.2088 553.587 85.7053 550.132 84.3284C546.663 82.9252 542.753 82.2433 538.372 82.2433C534.828 82.2433 531.746 82.6485 529.231 83.472C531.268 86.9076 532.67 90.3565 533.42 93.7822C534.17 97.2277 534.543 100.176 534.543 102.636C534.543 109.047 532.697 113.981 528.994 117.502C525.284 121.03 520.719 122.786 515.312 122.786C509.743 122.786 505.219 121.113 501.753 117.749C498.288 114.396 496.574 110.107 496.574 104.87C496.574 101.414 497.47 98.0512 499.232 94.7803C500.993 91.4863 503.725 88.5975 507.476 86.0479C511.168 83.5049 515.93 81.4528 521.765 79.8914C527.582 78.3399 534.54 77.5724 542.641 77.5724C552.963 77.5724 562.082 78.867 570.021 81.489C577.953 84.1143 584.656 87.7805 590.137 92.4383C595.622 97.1059 599.763 102.633 602.553 109.043C605.332 115.411 606.714 122.46 606.714 130.138V179.314C606.714 182.437 607.315 184.904 608.475 186.706C609.677 188.498 611.296 189.404 613.332 189.404C615.168 189.404 617.408 188.616 620.025 187.055C622.673 185.504 625.327 183.425 628.018 180.82C628.018 183.896 627.173 186.953 625.469 189.881C623.786 192.839 621.502 195.475 618.634 197.764C615.769 200.043 612.514 201.885 608.876 203.288C605.258 204.648 601.48 205.367 597.604 205.367C591.054 205.367 585.294 203.472 580.41 199.721C575.489 195.932 572.03 191.192 570.021 185.461C566.281 192.345 561.271 197.797 554.951 201.796C548.611 205.818 541.385 207.824 533.294 207.824C517.42 207.824 505.426 204.645 497.324 198.367C489.243 192.055 485.184 183.738 485.184 173.428ZM542.926 198.755C545.784 198.755 548.431 198.08 550.916 196.766C553.363 195.475 555.542 193.818 557.466 191.871C559.421 189.881 561.122 187.806 562.551 185.589C563.98 183.382 565.198 181.281 566.206 179.314V143.673C562.34 143.673 558.637 143.755 555.067 143.914C551.544 144.108 549.175 144.246 547.994 144.414C541.912 145.238 537.092 148.601 533.562 154.494C529.992 160.407 528.23 167.762 528.23 176.623C528.23 185.309 529.764 191.159 532.771 194.17C535.853 197.22 539.193 198.755 542.926 198.755Z" fill="#E2A379"/>
<path d="M648.015 96.2462C645.816 96.2462 643.389 97.0334 640.684 98.5684C637.979 100.14 635.267 102.235 632.562 104.87C632.562 101.727 633.438 98.6969 635.247 95.7685C637.015 92.8204 639.35 90.1424 642.33 87.7839C645.262 85.3891 648.758 83.505 652.709 82.1017C656.646 80.7281 660.838 80.043 665.247 80.043C671.339 80.043 677.082 81.4923 682.573 84.4602C688.065 87.4084 691.747 91.7235 693.594 97.4781C697.996 92.0727 703.229 87.8497 709.288 84.8028C715.38 81.7888 721.788 80.2834 728.559 80.2834C732.764 80.2834 736.688 80.8928 740.333 82.1017C743.951 83.3403 747.124 85.04 749.836 87.1547C752.511 89.2727 754.625 91.7663 756.156 94.6486C757.69 97.5045 758.443 100.601 758.443 103.862C758.443 109.277 756.492 113.777 752.616 117.371C748.723 121.004 743.825 122.786 737.926 122.786C734.526 122.786 731.692 122.177 729.431 120.964C727.147 119.726 725.301 118.155 723.872 116.28C722.433 114.396 721.387 112.215 720.827 109.758C720.227 107.321 719.941 104.873 719.941 102.406C719.941 99.1152 720.349 95.9629 721.214 92.9357C722.046 89.9019 722.986 87.7312 723.974 86.4201C721.625 86.4201 719.052 87.0757 716.266 88.3801C713.489 89.701 710.693 91.4106 707.916 93.5352C705.137 95.6697 702.547 98.015 700.188 100.558C697.829 103.091 695.966 105.601 694.615 108.035V179.571C694.615 183.175 694.686 186.334 694.849 189.041C695.022 191.729 695.576 193.913 696.519 195.547C697.422 197.194 698.956 198.413 701.081 199.243C703.171 200.057 706.097 200.472 709.786 200.472V204.141H638.899V200.472C642.785 200.472 645.724 200.057 647.754 199.243C649.78 198.413 651.263 197.191 652.197 195.547C653.12 193.913 653.666 191.733 653.843 189.041C653.999 186.334 654.07 183.175 654.07 179.571V104.59C654.07 101.487 653.49 99.3063 652.302 98.0941C651.138 96.8457 649.709 96.2462 648.015 96.2462Z" fill="#E2A379"/>
<path d="M792.872 30.6229C796.429 30.6229 799.972 31.1038 803.512 32.0755C807.059 33.0901 810.229 34.579 812.985 36.6509C815.799 38.6833 818.042 41.2592 819.715 44.3918C821.423 47.5046 822.247 51.1115 822.247 55.1829V87.4015C823.602 86.4133 824.905 85.5174 826.181 84.6972C827.447 83.8737 828.754 83.1358 830.101 82.4704C832.623 81.1759 835.735 80.0395 839.472 79.0249C843.195 78.0565 847.591 77.5755 852.627 77.5755C860.569 77.5755 867.88 78.9426 874.546 81.7622C881.198 84.5358 886.951 88.6368 891.767 94.0357C896.587 99.4312 900.334 106.204 903.049 114.327C905.744 122.41 907.068 131.884 907.068 142.711C907.068 153.522 905.744 162.996 903.049 171.099C900.334 179.209 896.726 185.965 892.127 191.37C887.586 196.776 882.227 200.877 876.05 203.667C869.889 206.457 863.281 207.837 856.208 207.837C847.397 207.837 839.75 205.831 833.281 201.809C826.778 197.81 821.647 192.118 817.954 184.723C817.76 184.907 817.703 185.065 817.703 185.233C817.703 185.388 817.611 185.546 817.458 185.714C816.752 187.691 815.551 189.799 813.895 192.118C812.191 194.417 810.175 196.535 807.823 198.492C805.454 200.468 802.749 202.105 799.718 203.42C796.677 204.727 793.361 205.376 789.828 205.376C787.306 205.376 784.591 204.968 781.736 204.141V55.1829C781.736 52.0899 781.122 49.8994 779.964 48.6872C778.763 47.4486 777.327 46.8294 775.644 46.8294C773.428 46.8294 771.011 47.6265 768.306 49.1582C765.611 50.7196 762.896 52.8277 760.181 55.4629C760.181 52.3204 761.067 49.2966 762.828 46.3484C764.617 43.4102 766.999 40.7322 769.976 38.3769C772.908 35.9756 776.363 34.098 780.328 32.6948C784.302 31.3146 788.473 30.6229 792.872 30.6229ZM822.247 95.518V179.314C823.269 181.439 824.484 183.692 825.913 186.086C827.372 188.461 828.961 190.576 830.722 192.464C832.531 194.368 834.503 195.909 836.696 197.148C838.875 198.376 841.346 198.986 844.024 198.986C846.576 198.986 849.003 198.248 851.361 196.769C853.724 195.31 855.838 192.464 857.685 188.287C859.568 184.13 861.062 178.309 862.263 170.845C863.434 163.388 864.045 153.667 864.045 141.72C864.045 129.911 863.431 120.374 862.263 113.085C861.062 105.792 859.504 100.083 857.579 95.9989C855.631 91.9143 853.354 89.1177 850.744 87.6387C848.117 86.1762 845.381 85.4317 842.52 85.4317C838.114 85.4317 834.323 86.4924 831.123 88.6368C827.885 90.7581 824.946 93.0508 822.247 95.518Z" fill="#DF8E58"/>
<path d="M1001.82 77.5725C1012.28 77.5725 1021.69 79.0219 1030.06 81.9898C1038.39 84.9379 1045.5 89.2267 1051.32 94.8989C1057.13 100.555 1061.61 107.4 1064.74 115.411C1067.85 123.458 1069.43 132.543 1069.43 142.705C1069.43 152.86 1067.85 161.961 1064.74 169.982C1061.61 178.013 1057.13 184.848 1051.32 190.504C1045.5 196.17 1038.39 200.465 1030.06 203.413C1021.68 206.368 1012.28 207.83 1001.82 207.83C991.325 207.83 981.94 206.368 973.581 203.413C965.221 200.462 958.128 196.17 952.293 190.504C946.469 184.848 941.993 178.013 938.897 169.982C935.758 161.961 934.224 152.86 934.224 142.705C934.224 132.543 935.758 123.458 938.897 115.411C941.993 107.4 946.469 100.555 952.293 94.8989C958.131 89.2267 965.225 84.9379 973.581 81.9898C981.94 79.0219 991.325 77.5725 1001.82 77.5725ZM1001.82 201.674C1004.69 201.674 1007.56 200.87 1010.43 199.233C1013.29 197.589 1015.9 194.559 1018.28 190.142C1020.65 185.708 1022.58 179.683 1024.1 172.061C1025.61 164.439 1026.37 154.652 1026.37 142.705C1026.37 130.731 1025.61 120.964 1024.1 113.332C1022.58 105.72 1020.65 99.6917 1018.28 95.2481C1015.9 90.821 1013.29 87.8103 1010.43 86.1731C1007.56 84.5294 1004.69 83.7059 1001.82 83.7059C998.958 83.7059 996.087 84.5294 993.198 86.1731C990.337 87.8103 987.707 90.821 985.362 95.2481C982.992 99.6917 981.051 105.72 979.534 113.332C978.003 120.964 977.253 130.731 977.253 142.705C977.253 154.652 978.003 164.439 979.534 172.061C981.051 179.683 982.992 185.708 985.362 190.142C987.703 194.559 990.337 197.589 993.198 199.233C996.087 200.87 998.958 201.674 1001.82 201.674Z" fill="#DF8E58"/>
<path d="M1078.8 104.59C1078.8 101.651 1079.64 98.6934 1081.33 95.7651C1083.03 92.8169 1085.39 90.1389 1088.44 87.7804C1091.48 85.3857 1095.2 83.5015 1099.57 82.0982C1103.97 80.7246 1108.94 80.0395 1114.53 80.0395C1121.27 80.0395 1127.13 81.2385 1132.12 83.7057C1137.1 86.1729 1141.28 90.0829 1144.67 95.5147L1163.39 124.759L1190.75 90.5869C1191.27 89.9215 1191.55 89.4142 1191.62 88.9893C1191.74 88.5907 1191.76 88.202 1191.76 87.8825C1191.76 87.0656 1191.27 86.4858 1190.26 86.1696C1189.24 85.827 1188 85.5438 1186.59 85.3132C1185.12 85.0464 1183.63 84.9344 1182.03 84.9344C1180.42 84.9344 1178.94 84.9344 1177.59 84.9344H1175.56V81.2352H1216.06V84.9344C1210.34 84.9344 1206.42 85.5174 1204.3 86.6539C1202.17 87.81 1200.45 89.266 1199.11 91.0876L1167.19 130.892L1201.64 184.713C1202.49 185.879 1203.62 186.765 1205.06 187.421C1206.48 188.076 1207.9 188.409 1209.24 188.409C1211.77 188.409 1214.29 187.421 1216.84 185.457C1219.38 183.491 1221.22 181.936 1222.39 180.81C1222.39 183.57 1221.69 186.39 1220.26 189.275C1218.83 192.138 1216.65 194.753 1213.68 197.138C1210.7 199.513 1207.09 201.473 1202.78 203.034C1198.47 204.579 1193.46 205.363 1187.7 205.363C1182.32 205.363 1177.24 204.372 1172.54 202.415C1167.78 200.455 1163.66 196.667 1160.12 191.113L1139.6 158.924L1110.72 194.802C1110.23 195.471 1109.98 196.015 1109.98 196.522C1109.98 197.49 1110.5 198.238 1111.6 198.749C1112.71 199.23 1114.02 199.608 1115.53 199.839C1117.06 200.079 1118.57 200.264 1120.11 200.34C1121.62 200.432 1122.78 200.458 1123.65 200.458H1125.65V204.128H1085.13V200.458C1090.89 200.458 1094.83 199.879 1097.05 198.749C1099.25 197.583 1101.01 196.113 1102.36 194.302L1135.58 152.758L1103.14 102.122C1101.6 99.8397 1099.84 98.3904 1097.81 97.8073C1095.78 97.2539 1094.35 96.9575 1093.52 96.9575C1091.14 96.9575 1088.6 97.7414 1085.89 99.2962C1083.2 100.867 1080.84 102.633 1078.8 104.59Z" fill="#DF8E58"/>
<path d="M1430.47 156.24C1433.75 201.193 1404.13 206.846 1386.93 206.846C1370.22 206.846 1355 200.712 1341.35 190.88C1329.71 201.43 1315.04 206.846 1292.51 206.846C1264.15 206.846 1230.5 187.204 1233.77 154.03C1236.07 132.167 1253.01 120.128 1271.25 115.213C1248.45 83.7686 1252.52 29.7141 1312.49 29.7141C1336.31 29.7141 1357.06 38.8154 1357.81 59.2085C1358.57 80.3231 1339.34 92.613 1323.13 97.2872C1336.03 113.013 1351.48 129.213 1368.2 140.752L1371.47 131.917C1378.07 117.17 1387.68 100.963 1404.66 99.2438C1417.78 98.0053 1430.72 103.43 1433.74 116.191C1437.28 131.169 1426.4 144.457 1411.74 143.726C1380.08 141.99 1391.22 106.138 1381.07 119.387C1377.83 123.573 1372.76 133.884 1369.45 141.987C1388.95 155.262 1409.71 162.387 1430.47 156.24ZM1339.34 189.404C1333.78 185.227 1286.67 140.755 1272.76 117.433C1266.96 134.868 1273.02 155.502 1283.9 168.77C1298.84 186.953 1322.38 198.005 1339.34 189.404ZM1321.63 95.3141C1323.65 87.4414 1326.67 77.6286 1324.91 57.9931C1323.39 40.5414 1315.05 29.4769 1304.93 32.6852C1283.9 39.8102 1321.36 94.8332 1321.63 95.3141Z" fill="#BE7155"/>
<path d="M1521.75 77.5725C1530.02 77.5725 1537.07 78.34 1542.88 79.8915C1548.73 81.4528 1553.47 83.505 1557.2 86.048C1560.91 88.5975 1563.62 91.4864 1565.3 94.7804C1567 98.0513 1567.86 101.414 1567.86 104.87C1567.86 110.107 1566.12 114.396 1562.65 117.749C1559.2 121.113 1554.67 122.786 1549.12 122.786C1543.68 122.786 1539.14 121.03 1535.44 117.502C1531.71 113.981 1529.87 109.047 1529.87 102.637C1529.87 100.176 1530.24 97.3134 1531 94.0326C1531.78 90.7617 1533.15 87.4051 1535.18 83.9497C1533.15 83.1361 1530.89 82.721 1528.34 82.721C1525.14 82.721 1521.62 83.6269 1517.81 85.4287C1514.02 87.2272 1510.53 90.3532 1507.3 94.7804C1504.11 99.1877 1501.39 105.212 1499.21 112.831C1497 120.447 1495.91 130.138 1495.91 141.957C1495.91 153.763 1497 163.424 1499.21 170.961C1501.39 178.501 1504.19 184.443 1507.57 188.785C1510.95 193.126 1514.57 196.17 1518.47 197.876C1522.35 199.612 1526.05 200.462 1529.58 200.462C1535.5 200.462 1541.99 198.624 1549.12 194.925C1556.2 191.248 1562.71 186.528 1568.62 180.816C1568.62 183.893 1567.73 187.052 1565.96 190.27C1564.18 193.439 1561.32 196.361 1557.45 198.983C1553.57 201.608 1548.62 203.739 1542.65 205.367C1536.63 207 1529.43 207.827 1520.99 207.827C1499.21 207.827 1482.41 202.224 1470.59 191.008C1458.78 179.782 1452.87 163.678 1452.87 142.701C1452.87 122.216 1458.7 106.224 1470.33 94.7771C1481.99 83.3008 1499.13 77.5725 1521.75 77.5725Z" fill="#BE7155"/>
<path d="M1653.94 77.5725C1664.4 77.5725 1673.8 79.0219 1682.18 81.9898C1690.53 84.9379 1697.62 89.2267 1703.44 94.8989C1709.27 100.555 1713.75 107.4 1716.87 115.411C1719.99 123.458 1721.56 132.543 1721.56 142.705C1721.56 152.86 1719.99 161.961 1716.87 169.982C1713.75 178.013 1709.27 184.848 1703.44 190.504C1697.62 196.17 1690.53 200.465 1682.18 203.413C1673.8 206.368 1664.4 207.83 1653.94 207.83C1643.48 207.83 1634.08 206.368 1625.7 203.413C1617.34 200.462 1610.26 196.17 1604.44 190.504C1598.58 184.848 1594.11 178.013 1591.02 169.982C1587.86 161.961 1586.33 152.86 1586.33 142.705C1586.33 132.543 1587.86 123.458 1591.02 115.411C1594.11 107.4 1598.58 100.555 1604.44 94.8989C1610.26 89.2267 1617.34 84.9379 1625.7 81.9898C1634.08 79.0219 1643.48 77.5725 1653.94 77.5725ZM1653.94 201.674C1656.81 201.674 1659.68 200.87 1662.56 199.233C1665.4 197.589 1668.03 194.559 1670.4 190.142C1672.77 185.708 1674.72 179.683 1676.23 172.061C1677.74 164.439 1678.49 154.652 1678.49 142.705C1678.49 130.731 1677.74 120.964 1676.23 113.332C1674.73 105.72 1672.77 99.6917 1670.4 95.2481C1668.03 90.821 1665.4 87.8103 1662.56 86.1731C1659.68 84.5294 1656.81 83.7059 1653.94 83.7059C1651.07 83.7059 1648.2 84.5294 1645.34 86.1731C1642.45 87.8103 1639.82 90.821 1637.49 95.2481C1635.12 99.6917 1633.17 105.72 1631.65 113.332C1630.12 120.964 1629.37 130.731 1629.37 142.705C1629.37 154.652 1630.12 164.439 1631.65 172.061C1633.16 179.683 1635.12 185.708 1637.49 190.142C1639.82 194.559 1642.46 197.589 1645.34 199.233C1648.2 200.87 1651.07 201.674 1653.94 201.674Z" fill="#BE7155"/>
<path d="M1781.59 188.175C1781.59 193.07 1779.68 197.385 1775.91 201.055C1772.09 204.761 1767.66 206.609 1762.59 206.609C1757.53 206.609 1753.11 204.761 1749.29 201.055C1745.49 197.385 1743.58 193.07 1743.58 188.175C1743.58 183.257 1745.49 178.932 1749.29 175.26C1753.11 171.58 1757.53 169.742 1762.59 169.742C1767.66 169.742 1772.09 171.583 1775.91 175.26C1779.69 178.932 1781.59 183.257 1781.59 188.175Z" fill="#BE7155"/>
<g filter="url(#filter1_i)">
<path d="M1843.29 101.816L1843.53 102.567L1836.58 105.311L1836.3 104.544L1843.29 101.816Z" stroke="#B75737" stroke-width="0.25" stroke-miterlimit="10"/>
<path d="M1857.1 96.3939L1857.37 97.1417L1850.43 99.8691L1850.13 99.1477L1857.1 96.3939Z" stroke="#B75737" stroke-width="0.25" stroke-miterlimit="10"/>
<path d="M1870.94 90.9716L1871.22 91.7193L1864.27 94.4632L1863.97 93.7056L1870.94 90.9716Z" stroke="#B75737" stroke-width="0.25" stroke-miterlimit="10"/>
<path d="M1884.78 85.5631L1885.09 86.3043L1878.09 89.0185L1877.81 88.2807L1884.78 85.5631Z" stroke="#B75737" stroke-width="0.25" stroke-miterlimit="10"/>
<path d="M1898.64 80.1218L1898.9 80.8762L1891.95 83.6135L1891.65 82.8361L1898.64 80.1218Z" stroke="#B75737" stroke-width="0.25" stroke-miterlimit="10"/>
<path d="M1912.46 74.7194L1912.75 75.4671L1905.77 78.1945L1905.5 77.4369L1912.46 74.7194Z" stroke="#B75737" stroke-width="0.25" stroke-miterlimit="10"/>
<path d="M1926.33 69.2841L1926.61 70.0417L1919.62 72.7658L1919.34 72.0115L1926.33 69.2841Z" stroke="#B75737" stroke-width="0.25" stroke-miterlimit="10"/>
<path d="M1802.3 65.5789L1829.53 107.409L1868.93 222.288L1971.33 175.118L1932.43 66.521L1898.33 1L1805.72 36.2063C1805.72 36.2063 1800.62 38.8184 1801.41 42.9524C1802.2 47.0435 1805.22 52.2645 1805.22 52.2645L1802.68 57.4394L1804.63 60.3052C1804.63 60.3052 1806.63 63.4575 1803.9 64.5017C1801.18 65.5361 1801.05 69.1002 1801.05 69.1002L1800.78 77.1309" stroke="#B75737" stroke-width="0.25" stroke-miterlimit="10"/>
<path d="M1800.78 77.1307L1849.27 212.181L1868.09 222.317" stroke="#B75737" stroke-width="0.25" stroke-miterlimit="10"/>
<path d="M1801.48 64.913C1801.44 65.7629 1800.64 66.448 1799.75 66.3921C1798.85 66.3558 1798.18 65.5883 1798.22 64.7286C1798.28 63.882 1799.04 63.1969 1799.94 63.243C1800.81 63.2693 1801.52 64.0434 1801.48 64.913Z" fill="#B75737"/>
<path d="M1785.69 73.435C1785.64 74.3046 1784.87 74.9667 1783.98 74.9304C1783.09 74.8646 1782.38 74.1168 1782.44 73.2505C1782.49 72.3809 1783.28 71.7188 1784.16 71.7715C1785.06 71.8176 1785.74 72.5555 1785.69 73.435Z" fill="#B75737"/>
<path d="M1790.14 64.551C1790.07 65.4108 1789.29 66.0762 1788.41 66.0498C1787.51 65.9938 1786.82 65.2263 1786.88 64.3666C1786.93 63.5101 1787.7 62.825 1788.6 62.8711C1789.48 62.9172 1790.18 63.6847 1790.14 64.551Z" fill="#B75737"/>
<path d="M1802.78 60.5789C1802.71 61.4485 1801.92 62.1336 1801.05 62.0776C1800.15 62.0315 1799.44 61.264 1799.51 60.4175C1799.54 59.538 1800.34 58.8726 1801.23 58.9286C1802.11 58.9615 1802.81 59.7389 1802.78 60.5789Z" fill="#B75737"/>
<path d="M1798.48 71.4549C1798.43 72.3114 1797.65 73.0064 1796.76 72.9702C1795.87 72.9043 1795.17 72.1368 1795.24 71.2869C1795.27 70.4074 1796.05 69.742 1796.94 69.7881C1797.83 69.8277 1798.53 70.5688 1798.48 71.4549Z" fill="#B75737"/>
<path d="M1796.58 63.5099C1796.54 64.34 1795.76 65.0515 1794.86 64.9955C1793.97 64.9494 1793.29 64.172 1793.33 63.3353C1793.39 62.4657 1794.15 61.774 1795.05 61.83C1795.96 61.853 1796.64 62.6304 1796.58 63.5099Z" fill="#B75737"/>
<path d="M1793.12 69.3932C1793.07 70.2629 1792.3 70.9381 1791.4 70.8887C1790.52 70.8426 1789.8 70.0751 1789.86 69.2187C1789.91 68.3392 1790.7 67.6935 1791.59 67.7199C1792.49 67.7792 1793.16 68.5236 1793.12 69.3932Z" fill="#B75737"/>
<path d="M1798.6 80.5928C1798.56 81.4624 1797.79 82.1245 1796.88 82.0817C1795.99 82.0257 1795.3 81.2879 1795.35 80.4084C1795.4 79.5387 1796.19 78.8668 1797.07 78.9195C1797.98 78.9788 1798.65 79.7166 1798.6 80.5928Z" fill="#B75737"/>
<path d="M1790.92 80.1676C1790.87 81.0372 1790.1 81.7125 1789.2 81.6664C1788.33 81.6104 1787.62 80.8725 1787.68 79.993C1787.72 79.1234 1788.51 78.4712 1789.38 78.5041C1790.28 78.5502 1790.98 79.298 1790.92 80.1676Z" fill="#B75737"/>
<path d="M1778.75 80.6486C1778.68 81.5347 1777.93 82.21 1777.03 82.154C1776.14 82.098 1775.46 81.3404 1775.5 80.4806C1775.55 79.611 1776.32 78.9258 1777.22 78.9818C1778.1 79.0313 1778.79 79.7988 1778.75 80.6486Z" fill="#B75737"/>
<path d="M1784.75 85.4182C1784.69 86.2878 1783.92 86.9598 1783.04 86.917C1782.14 86.8775 1781.47 86.1001 1781.5 85.2436C1781.55 84.3839 1782.32 83.6889 1783.23 83.7449C1784.1 83.7811 1784.8 84.5486 1784.75 85.4182Z" fill="#B75737"/>
<path d="M1800.98 91.7562C1800.93 92.6159 1800.13 93.2912 1799.25 93.2154C1798.37 93.1891 1797.65 92.4381 1797.7 91.5684C1797.75 90.7021 1798.55 90.017 1799.44 90.0697C1800.33 90.1191 1801.04 90.88 1800.98 91.7562Z" fill="#B75737"/>
<path d="M1793.79 89.4432C1793.74 90.3128 1792.95 90.9979 1792.07 90.9485C1791.19 90.9024 1790.48 90.1349 1790.54 89.2752C1790.58 88.4187 1791.37 87.7336 1792.26 87.7896C1793.14 87.839 1793.83 88.5966 1793.79 89.4432Z" fill="#B75737"/>
<path d="M1783.21 93.9534C1783.16 94.823 1782.38 95.4884 1781.49 95.4521C1780.61 95.406 1779.9 94.6385 1779.95 93.7788C1779.99 92.9223 1780.81 92.2273 1781.68 92.2734C1782.55 92.3129 1783.27 93.0837 1783.21 93.9534Z" fill="#B75737"/>
<path d="M1799.98 101.948C1799.94 102.818 1799.16 103.5 1798.28 103.447C1797.38 103.401 1796.69 102.653 1796.74 101.774C1796.79 100.924 1797.56 100.238 1798.46 100.285C1799.36 100.331 1800.05 101.088 1799.98 101.948Z" fill="#B75737"/>
<path d="M1790.52 101.309C1790.45 102.175 1789.67 102.834 1788.79 102.808C1787.89 102.752 1787.17 102.014 1787.24 101.134C1787.28 100.265 1788.07 99.5895 1788.98 99.6455C1789.86 99.6916 1790.55 100.443 1790.52 101.309Z" fill="#B75737"/>
<path d="M1777.03 104.016C1776.97 104.876 1776.19 105.531 1775.3 105.485C1774.41 105.459 1773.7 104.698 1773.75 103.822C1773.8 102.962 1774.59 102.29 1775.49 102.343C1776.36 102.392 1777.08 103.14 1777.03 104.016Z" fill="#B75737"/>
<path d="M1796.33 113.655C1796.27 114.534 1795.48 115.219 1794.61 115.153C1793.71 115.107 1793.01 114.359 1793.07 113.49C1793.12 112.623 1793.9 111.958 1794.79 112.014C1795.66 112.037 1796.38 112.805 1796.33 113.655Z" fill="#B75737"/>
<path d="M1780.99 119.05C1780.93 119.91 1780.16 120.575 1779.26 120.529C1778.38 120.483 1777.7 119.735 1777.74 118.876C1777.78 118 1778.56 117.344 1779.45 117.38C1780.35 117.426 1781.04 118.164 1780.99 119.05Z" fill="#B75737"/>
<path d="M1800.36 57.1233C1800.3 57.9929 1799.52 58.6583 1798.64 58.6023C1797.74 58.566 1797.04 57.8084 1797.09 56.9553C1797.14 56.0791 1797.92 55.384 1798.82 55.4301C1799.72 55.4894 1800.4 56.2668 1800.36 57.1233Z" fill="#B75737"/>
<path d="M1794.85 57.4491C1794.79 58.3187 1794.03 58.9808 1793.14 58.9379C1792.23 58.8819 1791.54 58.154 1791.6 57.2745C1791.65 56.395 1792.42 55.7329 1793.32 55.7757C1794.21 55.8317 1794.89 56.5794 1794.85 57.4491Z" fill="#B75737"/>
<path d="M1806.29 110.281C1806.25 111.151 1805.47 111.816 1804.59 111.76C1803.69 111.724 1802.99 110.976 1803.06 110.113C1803.1 109.234 1803.87 108.562 1804.76 108.625C1805.65 108.674 1806.35 109.412 1806.29 110.281Z" fill="#B75737"/>
<path d="M1803.39 120.131C1803.33 121.01 1802.55 121.682 1801.67 121.63C1800.77 121.574 1800.08 120.826 1800.12 119.956C1800.17 119.077 1800.95 118.421 1801.86 118.468C1802.74 118.514 1803.43 119.265 1803.39 120.131Z" fill="#B75737"/>
<path d="M1791.22 118.092C1791.18 118.948 1790.42 119.633 1789.53 119.591C1788.62 119.535 1787.92 118.774 1787.97 117.897C1788.02 117.048 1788.8 116.366 1789.71 116.412C1790.59 116.465 1791.29 117.222 1791.22 118.092Z" fill="#B75737"/>
<path d="M1774.42 112.739C1774.38 113.599 1773.6 114.271 1772.72 114.238C1771.84 114.188 1771.12 113.424 1771.16 112.554C1771.22 111.705 1772.02 111.023 1772.89 111.066C1773.77 111.122 1774.49 111.879 1774.42 112.739Z" fill="#B75737"/>
<path d="M1786.86 107.712C1786.8 108.562 1786.04 109.244 1785.13 109.208C1784.26 109.152 1783.56 108.387 1783.6 107.518C1783.65 106.668 1784.44 105.996 1785.31 106.029C1786.21 106.078 1786.9 106.846 1786.86 107.712Z" fill="#B75737"/>
<path d="M1769.39 104.87C1769.35 105.729 1768.57 106.411 1767.68 106.365C1766.8 106.309 1766.11 105.561 1766.14 104.685C1766.2 103.825 1766.98 103.14 1767.87 103.196C1768.76 103.239 1769.44 103.99 1769.39 104.87Z" fill="#B75737"/>
<path d="M1758.73 113.286C1758.69 114.155 1757.91 114.83 1757.01 114.774C1756.13 114.718 1755.44 113.981 1755.47 113.111C1755.51 112.232 1756.31 111.569 1757.19 111.632C1758.08 111.658 1758.79 112.406 1758.73 113.286Z" fill="#B75737"/>
<path d="M1767.47 122.618C1767.41 123.497 1766.65 124.169 1765.75 124.116C1764.84 124.06 1764.16 123.323 1764.21 122.453C1764.27 121.573 1765.03 120.908 1765.94 120.964C1766.83 121.01 1767.52 121.748 1767.47 122.618Z" fill="#B75737"/>
<path d="M1794.76 127.025C1794.72 127.881 1793.94 128.54 1793.05 128.491C1792.17 128.445 1791.46 127.707 1791.5 126.841C1791.57 125.955 1792.34 125.296 1793.24 125.352C1794.13 125.398 1794.82 126.139 1794.76 127.025Z" fill="#B75737"/>
<path d="M1784.93 135.543C1784.87 136.429 1784.09 137.104 1783.21 137.048C1782.32 137.002 1781.61 136.244 1781.67 135.368C1781.71 134.518 1782.49 133.853 1783.37 133.889C1784.27 133.945 1784.98 134.703 1784.93 135.543Z" fill="#B75737"/>
<path d="M1782.35 127.101C1782.3 127.967 1781.53 128.642 1780.63 128.606C1779.75 128.54 1779.07 127.802 1779.1 126.936C1779.17 126.057 1779.92 125.401 1780.83 125.447C1781.71 125.48 1782.41 126.231 1782.35 127.101Z" fill="#B75737"/>
<path d="M1805.09 136.31C1805.02 137.18 1804.23 137.862 1803.33 137.799C1802.46 137.77 1801.77 136.996 1801.82 136.136C1801.87 135.276 1802.65 134.601 1803.51 134.647C1804.42 134.703 1805.13 135.451 1805.09 136.31Z" fill="#B75737"/>
<path d="M1810.79 127.516C1810.75 128.375 1809.96 129.06 1809.09 129.004C1808.19 128.948 1807.49 128.191 1807.55 127.341C1807.61 126.465 1808.37 125.783 1809.28 125.836C1810.15 125.878 1810.84 126.643 1810.79 127.516Z" fill="#B75737"/>
<path d="M1795.36 141.634C1795.33 142.504 1794.53 143.149 1793.64 143.113C1792.77 143.067 1792.06 142.329 1792.11 141.45C1792.17 140.58 1792.94 139.908 1793.81 139.961C1794.72 140.007 1795.4 140.755 1795.36 141.634Z" fill="#B75737"/>
<path d="M1770.8 135.22C1770.74 136.096 1769.98 136.762 1769.07 136.716C1768.19 136.679 1767.48 135.922 1767.54 135.036C1767.59 134.169 1768.37 133.494 1769.26 133.55C1770.15 133.593 1770.85 134.344 1770.8 135.22Z" fill="#B75737"/>
<path d="M1802.02 150.725C1801.96 151.585 1801.18 152.27 1800.31 152.224C1799.4 152.168 1798.73 151.42 1798.77 150.541C1798.82 149.691 1799.59 149.009 1800.49 149.052C1801.37 149.098 1802.07 149.855 1802.02 150.725Z" fill="#B75737"/>
<path d="M1757.24 130.316C1757.19 131.176 1756.39 131.848 1755.51 131.795C1754.62 131.739 1753.92 131.001 1753.97 130.132C1754.03 129.252 1754.79 128.57 1755.69 128.626C1756.59 128.669 1757.29 129.427 1757.24 130.316Z" fill="#B75737"/>
<path d="M1779.26 151.391C1779.22 152.247 1778.44 152.933 1777.55 152.89C1776.65 152.844 1775.95 152.073 1776.02 151.216C1776.06 150.357 1776.84 149.672 1777.73 149.728C1778.61 149.764 1779.3 150.531 1779.26 151.391Z" fill="#B75737"/>
<path d="M1761.65 146.513C1761.59 147.392 1760.84 148.057 1759.93 148.011C1759.03 147.955 1758.34 147.208 1758.4 146.338C1758.46 145.458 1759.21 144.806 1760.12 144.852C1761.02 144.895 1761.7 145.633 1761.65 146.513Z" fill="#B75737"/>
<path d="M1747.65 122.064C1747.6 122.92 1746.84 123.606 1745.95 123.563C1745.04 123.507 1744.34 122.756 1744.41 121.88C1744.45 121.003 1745.22 120.338 1746.12 120.384C1747.01 120.437 1747.7 121.165 1747.65 122.064Z" fill="#B75737"/>
<path d="M1745.33 137.131C1745.29 138.021 1744.52 138.686 1743.62 138.63C1742.73 138.584 1742.04 137.836 1742.1 136.957C1742.14 136.087 1742.91 135.415 1743.8 135.458C1744.7 135.517 1745.39 136.255 1745.33 137.131Z" fill="#B75737"/>
<path d="M1776.25 143.11C1776.21 143.989 1775.43 144.661 1774.55 144.625C1773.67 144.559 1772.94 143.811 1773 142.925C1773.05 142.075 1773.84 141.38 1774.73 141.436C1775.61 141.486 1776.31 142.253 1776.25 143.11Z" fill="#B75737"/>
<path d="M1759.11 138.472C1759.07 139.351 1758.3 140.007 1757.4 139.961C1756.5 139.905 1755.8 139.167 1755.85 138.297C1755.92 137.418 1756.67 136.746 1757.58 136.812C1758.49 136.848 1759.18 137.596 1759.11 138.472Z" fill="#B75737"/>
<path d="M1791.23 152.027C1791.18 152.906 1790.42 153.588 1789.53 153.536C1788.63 153.486 1787.93 152.732 1787.97 151.852C1788.02 150.993 1788.82 150.331 1789.71 150.363C1790.59 150.41 1791.29 151.171 1791.23 152.027Z" fill="#B75737"/>
<path d="M1812.59 143.917C1812.55 144.797 1811.75 145.442 1810.88 145.396C1810 145.347 1809.31 144.609 1809.35 143.743C1809.41 142.863 1810.18 142.188 1811.05 142.244C1811.94 142.31 1812.64 143.047 1812.59 143.917Z" fill="#B75737"/>
<path d="M1768.71 153.535C1768.65 154.405 1767.87 155.077 1766.98 155.024C1766.07 154.975 1765.4 154.23 1765.43 153.361C1765.5 152.491 1766.27 151.816 1767.16 151.865C1768.06 151.928 1768.76 152.676 1768.71 153.535Z" fill="#B75737"/>
<path d="M1751.61 144.829C1751.56 145.709 1750.77 146.355 1749.88 146.318C1749.01 146.282 1748.3 145.531 1748.33 144.665C1748.4 143.798 1749.19 143.123 1750.08 143.166C1750.96 143.222 1751.67 143.96 1751.61 144.829Z" fill="#B75737"/>
<path d="M1742.18 129.963C1742.14 130.823 1741.38 131.488 1740.48 131.442C1739.58 131.396 1738.9 130.655 1738.95 129.789C1739.01 128.909 1739.77 128.247 1740.65 128.3C1741.54 128.339 1742.22 129.087 1742.18 129.963Z" fill="#B75737"/>
<path d="M1843.29 102.816L1843.53 103.567L1836.58 106.311L1836.3 105.544L1843.29 102.816Z" stroke="#B75737" stroke-width="0.25" stroke-miterlimit="10"/>
<path d="M1857.1 97.3939L1857.37 98.1417L1850.43 100.869L1850.13 100.148L1857.1 97.3939Z" stroke="#B75737" stroke-width="0.25" stroke-miterlimit="10"/>
<path d="M1870.94 91.9716L1871.22 92.7193L1864.27 95.4632L1863.97 94.7056L1870.94 91.9716Z" stroke="#B75737" stroke-width="0.25" stroke-miterlimit="10"/>
<path d="M1884.78 86.5631L1885.09 87.3043L1878.09 90.0185L1877.81 89.2807L1884.78 86.5631Z" stroke="#B75737" stroke-width="0.25" stroke-miterlimit="10"/>
<path d="M1898.64 81.1218L1898.9 81.8762L1891.95 84.6135L1891.65 83.8361L1898.64 81.1218Z" stroke="#B75737" stroke-width="0.25" stroke-miterlimit="10"/>
<path d="M1912.46 75.7194L1912.75 76.4671L1905.77 79.1945L1905.5 78.4369L1912.46 75.7194Z" stroke="#B75737" stroke-width="0.25" stroke-miterlimit="10"/>
<path d="M1926.33 70.2841L1926.61 71.0417L1919.62 73.7658L1919.34 73.0115L1926.33 70.2841Z" stroke="#B75737" stroke-width="0.25" stroke-miterlimit="10"/>
<path d="M1802.3 66.5789L1829.53 108.409L1868.93 223.288L1971.33 176.118L1932.43 67.521L1898.33 2L1805.72 37.2063C1805.72 37.2063 1800.62 39.8184 1801.41 43.9524C1802.2 48.0435 1805.22 53.2645 1805.22 53.2645L1802.68 58.4394L1804.63 61.3052C1804.63 61.3052 1806.63 64.4575 1803.9 65.5017C1801.18 66.5361 1801.05 70.1002 1801.05 70.1002L1800.78 78.1309" stroke="#B75737" stroke-width="0.25" stroke-miterlimit="10"/>
<path d="M1800.78 78.1307L1849.27 213.181L1868.09 223.317" stroke="#B75737" stroke-width="0.25" stroke-miterlimit="10"/>
<path d="M1801.48 65.913C1801.44 66.7629 1800.64 67.448 1799.75 67.3921C1798.85 67.3558 1798.18 66.5883 1798.22 65.7286C1798.28 64.882 1799.04 64.1969 1799.94 64.243C1800.81 64.2693 1801.52 65.0434 1801.48 65.913Z" fill="#B75737"/>
<path d="M1785.69 74.435C1785.64 75.3046 1784.87 75.9667 1783.98 75.9304C1783.09 75.8646 1782.38 75.1168 1782.44 74.2505C1782.49 73.3809 1783.28 72.7188 1784.16 72.7715C1785.06 72.8176 1785.74 73.5555 1785.69 74.435Z" fill="#B75737"/>
<path d="M1790.14 65.551C1790.07 66.4108 1789.29 67.0762 1788.41 67.0498C1787.51 66.9938 1786.82 66.2263 1786.88 65.3666C1786.93 64.5101 1787.7 63.825 1788.6 63.8711C1789.48 63.9172 1790.18 64.6847 1790.14 65.551Z" fill="#B75737"/>
<path d="M1802.78 61.5789C1802.71 62.4485 1801.92 63.1336 1801.05 63.0776C1800.15 63.0315 1799.44 62.264 1799.51 61.4175C1799.54 60.538 1800.34 59.8726 1801.23 59.9286C1802.11 59.9615 1802.81 60.7389 1802.78 61.5789Z" fill="#B75737"/>
<path d="M1798.48 72.4549C1798.43 73.3114 1797.65 74.0064 1796.76 73.9702C1795.87 73.9043 1795.18 73.1368 1795.24 72.2869C1795.27 71.4074 1796.05 70.742 1796.94 70.7881C1797.83 70.8277 1798.54 71.5688 1798.48 72.4549Z" fill="#B75737"/>
<path d="M1796.58 64.5099C1796.54 65.34 1795.76 66.0515 1794.86 65.9955C1793.97 65.9494 1793.29 65.172 1793.33 64.3353C1793.39 63.4657 1794.15 62.774 1795.05 62.83C1795.96 62.853 1796.64 63.6304 1796.58 64.5099Z" fill="#B75737"/>
<path d="M1793.12 70.3932C1793.07 71.2629 1792.3 71.9381 1791.41 71.8887C1790.52 71.8426 1789.8 71.0751 1789.86 70.2187C1789.91 69.3392 1790.7 68.6935 1791.59 68.7199C1792.49 68.7792 1793.16 69.5236 1793.12 70.3932Z" fill="#B75737"/>
<path d="M1798.6 81.5928C1798.56 82.4624 1797.79 83.1245 1796.88 83.0817C1795.99 83.0257 1795.3 82.2879 1795.35 81.4084C1795.4 80.5387 1796.19 79.8668 1797.07 79.9195C1797.98 79.9788 1798.65 80.7166 1798.6 81.5928Z" fill="#B75737"/>
<path d="M1790.92 81.1676C1790.87 82.0372 1790.1 82.7125 1789.2 82.6664C1788.33 82.6104 1787.62 81.8725 1787.68 80.993C1787.72 80.1234 1788.51 79.4712 1789.38 79.5041C1790.28 79.5502 1790.98 80.298 1790.92 81.1676Z" fill="#B75737"/>
<path d="M1778.75 81.6486C1778.68 82.5347 1777.93 83.21 1777.03 83.154C1776.14 83.098 1775.46 82.3404 1775.5 81.4806C1775.55 80.611 1776.33 79.9258 1777.22 79.9818C1778.1 80.0313 1778.79 80.7988 1778.75 81.6486Z" fill="#B75737"/>
<path d="M1784.75 86.4182C1784.69 87.2878 1783.92 87.9598 1783.04 87.917C1782.14 87.8775 1781.47 87.1001 1781.5 86.2436C1781.55 85.3839 1782.33 84.6889 1783.23 84.7449C1784.1 84.7811 1784.8 85.5486 1784.75 86.4182Z" fill="#B75737"/>
<path d="M1800.98 92.7562C1800.93 93.6159 1800.13 94.2912 1799.25 94.2154C1798.37 94.1891 1797.65 93.4381 1797.7 92.5684C1797.75 91.7021 1798.56 91.017 1799.44 91.0697C1800.33 91.1191 1801.04 91.88 1800.98 92.7562Z" fill="#B75737"/>
<path d="M1793.79 90.4432C1793.74 91.3128 1792.95 91.9979 1792.07 91.9485C1791.19 91.9024 1790.48 91.1349 1790.54 90.2752C1790.58 89.4187 1791.37 88.7336 1792.26 88.7896C1793.14 88.839 1793.83 89.5966 1793.79 90.4432Z" fill="#B75737"/>
<path d="M1783.21 94.9534C1783.16 95.823 1782.38 96.4884 1781.49 96.4521C1780.61 96.406 1779.9 95.6385 1779.95 94.7788C1779.99 93.9223 1780.81 93.2273 1781.68 93.2734C1782.55 93.3129 1783.27 94.0837 1783.21 94.9534Z" fill="#B75737"/>
<path d="M1799.99 102.948C1799.94 103.818 1799.16 104.5 1798.28 104.447C1797.38 104.401 1796.69 103.653 1796.74 102.774C1796.79 101.924 1797.56 101.238 1798.46 101.285C1799.36 101.331 1800.05 102.088 1799.99 102.948Z" fill="#B75737"/>
<path d="M1790.52 102.309C1790.45 103.175 1789.67 103.834 1788.79 103.808C1787.89 103.752 1787.17 103.014 1787.24 102.134C1787.28 101.265 1788.07 100.59 1788.98 100.646C1789.86 100.692 1790.55 101.443 1790.52 102.309Z" fill="#B75737"/>
<path d="M1777.03 105.016C1776.97 105.876 1776.19 106.531 1775.3 106.485C1774.41 106.459 1773.7 105.698 1773.76 104.822C1773.8 103.962 1774.59 103.29 1775.49 103.343C1776.36 103.392 1777.08 104.14 1777.03 105.016Z" fill="#B75737"/>
<path d="M1796.33 114.655C1796.27 115.534 1795.48 116.219 1794.61 116.153C1793.71 116.107 1793.01 115.359 1793.07 114.49C1793.12 113.623 1793.9 112.958 1794.79 113.014C1795.66 113.037 1796.38 113.805 1796.33 114.655Z" fill="#B75737"/>
<path d="M1780.99 120.05C1780.93 120.91 1780.16 121.575 1779.26 121.529C1778.38 121.483 1777.7 120.735 1777.74 119.876C1777.78 119 1778.56 118.344 1779.45 118.38C1780.35 118.426 1781.04 119.164 1780.99 120.05Z" fill="#B75737"/>
<path d="M1800.37 58.1233C1800.3 58.9929 1799.52 59.6583 1798.64 59.6023C1797.74 59.566 1797.04 58.8084 1797.09 57.9553C1797.14 57.0791 1797.92 56.384 1798.82 56.4301C1799.72 56.4894 1800.4 57.2668 1800.37 58.1233Z" fill="#B75737"/>
<path d="M1794.85 58.4491C1794.79 59.3187 1794.03 59.9808 1793.14 59.9379C1792.23 59.8819 1791.54 59.154 1791.6 58.2745C1791.65 57.395 1792.42 56.7329 1793.32 56.7757C1794.21 56.8317 1794.89 57.5794 1794.85 58.4491Z" fill="#B75737"/>
<path d="M1806.29 111.281C1806.25 112.151 1805.47 112.816 1804.59 112.76C1803.69 112.724 1802.99 111.976 1803.06 111.113C1803.1 110.234 1803.87 109.562 1804.76 109.625C1805.65 109.674 1806.36 110.412 1806.29 111.281Z" fill="#B75737"/>
<path d="M1803.39 121.131C1803.33 122.01 1802.55 122.682 1801.67 122.63C1800.77 122.574 1800.08 121.826 1800.12 120.956C1800.17 120.077 1800.95 119.421 1801.86 119.468C1802.74 119.514 1803.43 120.265 1803.39 121.131Z" fill="#B75737"/>
<path d="M1791.22 119.092C1791.18 119.948 1790.42 120.633 1789.53 120.591C1788.62 120.535 1787.92 119.774 1787.97 118.897C1788.02 118.048 1788.8 117.366 1789.71 117.412C1790.59 117.465 1791.29 118.222 1791.22 119.092Z" fill="#B75737"/>
<path d="M1774.42 113.739C1774.38 114.599 1773.6 115.271 1772.72 115.238C1771.84 115.188 1771.12 114.424 1771.16 113.554C1771.22 112.705 1772.02 112.023 1772.89 112.066C1773.77 112.122 1774.49 112.879 1774.42 113.739Z" fill="#B75737"/>
<path d="M1786.86 108.712C1786.8 109.562 1786.05 110.244 1785.13 110.208C1784.26 110.152 1783.56 109.387 1783.6 108.518C1783.65 107.668 1784.44 106.996 1785.31 107.029C1786.22 107.078 1786.9 107.846 1786.86 108.712Z" fill="#B75737"/>
<path d="M1769.39 105.87C1769.35 106.729 1768.57 107.411 1767.68 107.365C1766.8 107.309 1766.11 106.561 1766.15 105.685C1766.2 104.825 1766.98 104.14 1767.87 104.196C1768.76 104.239 1769.44 104.99 1769.39 105.87Z" fill="#B75737"/>
<path d="M1758.73 114.286C1758.69 115.155 1757.91 115.83 1757.01 115.774C1756.13 115.718 1755.44 114.981 1755.48 114.111C1755.51 113.232 1756.31 112.569 1757.19 112.632C1758.08 112.658 1758.79 113.406 1758.73 114.286Z" fill="#B75737"/>
<path d="M1767.47 123.618C1767.41 124.497 1766.65 125.169 1765.75 125.116C1764.84 125.06 1764.16 124.323 1764.21 123.453C1764.27 122.573 1765.03 121.908 1765.94 121.964C1766.83 122.01 1767.52 122.748 1767.47 123.618Z" fill="#B75737"/>
<path d="M1794.76 128.025C1794.72 128.881 1793.94 129.54 1793.05 129.491C1792.17 129.445 1791.46 128.707 1791.5 127.841C1791.57 126.955 1792.34 126.296 1793.24 126.352C1794.13 126.398 1794.82 127.139 1794.76 128.025Z" fill="#B75737"/>
<path d="M1784.93 136.543C1784.87 137.429 1784.09 138.104 1783.21 138.048C1782.32 138.002 1781.61 137.244 1781.67 136.368C1781.71 135.518 1782.49 134.853 1783.37 134.889C1784.27 134.945 1784.98 135.703 1784.93 136.543Z" fill="#B75737"/>
<path d="M1782.35 128.101C1782.3 128.967 1781.53 129.642 1780.63 129.606C1779.75 129.54 1779.07 128.802 1779.1 127.936C1779.17 127.057 1779.92 126.401 1780.83 126.447C1781.71 126.48 1782.41 127.231 1782.35 128.101Z" fill="#B75737"/>
<path d="M1805.09 137.31C1805.02 138.18 1804.23 138.862 1803.33 138.799C1802.47 138.77 1801.77 137.996 1801.82 137.136C1801.87 136.276 1802.66 135.601 1803.51 135.647C1804.42 135.703 1805.13 136.451 1805.09 137.31Z" fill="#B75737"/>
<path d="M1810.79 128.516C1810.75 129.375 1809.96 130.06 1809.09 130.004C1808.19 129.948 1807.49 129.191 1807.55 128.341C1807.61 127.465 1808.37 126.783 1809.28 126.836C1810.15 126.878 1810.84 127.643 1810.79 128.516Z" fill="#B75737"/>
<path d="M1795.37 142.634C1795.33 143.504 1794.53 144.149 1793.64 144.113C1792.77 144.067 1792.06 143.329 1792.11 142.45C1792.17 141.58 1792.94 140.908 1793.81 140.961C1794.72 141.007 1795.4 141.755 1795.37 142.634Z" fill="#B75737"/>
<path d="M1770.8 136.22C1770.74 137.096 1769.98 137.762 1769.07 137.716C1768.19 137.679 1767.48 136.922 1767.54 136.036C1767.59 135.169 1768.37 134.494 1769.26 134.55C1770.15 134.593 1770.85 135.344 1770.8 136.22Z" fill="#B75737"/>
<path d="M1802.02 151.725C1801.96 152.585 1801.18 153.27 1800.31 153.224C1799.4 153.168 1798.73 152.42 1798.77 151.541C1798.82 150.691 1799.59 150.009 1800.49 150.052C1801.37 150.098 1802.07 150.855 1802.02 151.725Z" fill="#B75737"/>
<path d="M1757.24 131.316C1757.19 132.176 1756.39 132.848 1755.51 132.795C1754.62 132.739 1753.92 132.001 1753.97 131.132C1754.03 130.252 1754.79 129.57 1755.69 129.626C1756.59 129.669 1757.29 130.427 1757.24 131.316Z" fill="#B75737"/>
<path d="M1779.26 152.391C1779.22 153.247 1778.44 153.933 1777.55 153.89C1776.65 153.844 1775.95 153.073 1776.02 152.216C1776.06 151.357 1776.84 150.672 1777.73 150.728C1778.62 150.764 1779.3 151.531 1779.26 152.391Z" fill="#B75737"/>
<path d="M1761.65 147.513C1761.59 148.392 1760.84 149.057 1759.93 149.011C1759.04 148.955 1758.34 148.208 1758.4 147.338C1758.47 146.458 1759.22 145.806 1760.12 145.852C1761.02 145.895 1761.7 146.633 1761.65 147.513Z" fill="#B75737"/>
<path d="M1747.65 123.064C1747.6 123.92 1746.84 124.606 1745.95 124.563C1745.04 124.507 1744.34 123.756 1744.41 122.88C1744.45 122.003 1745.22 121.338 1746.12 121.384C1747.01 121.437 1747.7 122.165 1747.65 123.064Z" fill="#B75737"/>
<path d="M1745.33 138.131C1745.29 139.021 1744.52 139.686 1743.62 139.63C1742.73 139.584 1742.04 138.836 1742.1 137.957C1742.14 137.087 1742.91 136.415 1743.8 136.458C1744.7 136.517 1745.39 137.255 1745.33 138.131Z" fill="#B75737"/>
<path d="M1776.25 144.11C1776.21 144.989 1775.43 145.661 1774.55 145.625C1773.67 145.559 1772.94 144.811 1773 143.925C1773.05 143.075 1773.84 142.38 1774.73 142.436C1775.61 142.486 1776.31 143.253 1776.25 144.11Z" fill="#B75737"/>
<path d="M1759.11 139.472C1759.07 140.351 1758.3 141.007 1757.4 140.961C1756.5 140.905 1755.8 140.167 1755.85 139.297C1755.92 138.418 1756.67 137.746 1757.58 137.812C1758.49 137.848 1759.18 138.596 1759.11 139.472Z" fill="#B75737"/>
<path d="M1791.23 153.027C1791.18 153.906 1790.42 154.588 1789.53 154.536C1788.63 154.486 1787.93 153.732 1787.97 152.852C1788.02 151.993 1788.82 151.331 1789.71 151.363C1790.59 151.41 1791.29 152.171 1791.23 153.027Z" fill="#B75737"/>
<path d="M1812.59 144.917C1812.55 145.797 1811.75 146.442 1810.88 146.396C1810 146.347 1809.31 145.609 1809.35 144.743C1809.41 143.863 1810.18 143.188 1811.05 143.244C1811.94 143.31 1812.64 144.047 1812.59 144.917Z" fill="#B75737"/>
<path d="M1768.71 154.535C1768.65 155.405 1767.87 156.077 1766.98 156.024C1766.07 155.975 1765.4 155.23 1765.43 154.361C1765.5 153.491 1766.27 152.816 1767.16 152.865C1768.06 152.928 1768.76 153.676 1768.71 154.535Z" fill="#B75737"/>
<path d="M1751.61 145.829C1751.56 146.709 1750.77 147.355 1749.88 147.318C1749.01 147.282 1748.3 146.531 1748.33 145.665C1748.4 144.798 1749.19 144.123 1750.08 144.166C1750.96 144.222 1751.67 144.96 1751.61 145.829Z" fill="#B75737"/>
<path d="M1742.18 130.963C1742.14 131.823 1741.38 132.488 1740.48 132.442C1739.58 132.396 1738.9 131.655 1738.95 130.789C1739.01 129.909 1739.77 129.247 1740.65 129.3C1741.54 129.339 1742.22 130.087 1742.18 130.963Z" fill="#B75737"/>
</g>
</g>
<defs>
<filter id="filter0_d" x="0" y="0.843628" width="1975.49" height="264.156" filterUnits="userSpaceOnUse" color-interpolation-filters="sRGB">
<feFlood flood-opacity="0" result="BackgroundImageFix"/>
<feColorMatrix in="SourceAlpha" type="matrix" values="0 0 0 0 0 0 0 0 0 0 0 0 0 0 0 0 0 0 127 0" result="hardAlpha"/>
<feOffset dy="4"/>
<feGaussianBlur stdDeviation="2"/>
<feComposite in2="hardAlpha" operator="out"/>
<feColorMatrix type="matrix" values="0 0 0 0 0 0 0 0 0 0 0 0 0 0 0 0 0 0 0.25 0"/>
<feBlend mode="normal" in2="BackgroundImageFix" result="effect1_dropShadow"/>
<feBlend mode="normal" in="SourceGraphic" in2="effect1_dropShadow" result="shape"/>
</filter>
<filter id="filter1_i" x="1738.94" y="0.843628" width="232.544" height="226.615" filterUnits="userSpaceOnUse" color-interpolation-filters="sRGB">
<feFlood flood-opacity="0" result="BackgroundImageFix"/>
<feBlend mode="normal" in="SourceGraphic" in2="BackgroundImageFix" result="shape"/>
<feColorMatrix in="SourceAlpha" type="matrix" values="0 0 0 0 0 0 0 0 0 0 0 0 0 0 0 0 0 0 127 0" result="hardAlpha"/>
<feOffset dy="4"/>
<feGaussianBlur stdDeviation="2"/>
<feComposite in2="hardAlpha" operator="arithmetic" k2="-1" k3="1"/>
<feColorMatrix type="matrix" values="0 0 0 0 0.745098 0 0 0 0 0.443137 0 0 0 0 0.333333 0 0 0 1 0"/>
<feBlend mode="normal" in2="shape" result="effect1_innerShadow"/>
</filter>
</defs>
</svg>
