<svg width="93" height="88" viewBox="0 0 103 97" fill="none" xmlns="http://www.w3.org/2000/svg">
<path fill-rule="evenodd" clip-rule="evenodd" d="M30.9 19.4H20.6V14.55H10.3V29.1H92.7V14.55H82.4V19.4H72.1V14.55H30.9V19.4ZM10.3 87.3V38.8H92.7V87.3H10.3ZM72.1 4.85H30.9V0H20.6V4.85H10.3C4.61146 4.85 0 9.19284 0 14.55V87.3C0 92.6573 4.61146 97 10.3 97H92.7C98.3887 97 103 92.6573 103 87.3V14.55C103 9.19284 98.3887 4.85 92.7 4.85H82.4V0H72.1V4.85ZM68.4584 45.0706L46.35 65.8911L34.5416 54.7706L27.2584 61.6294L46.35 79.6089L75.7416 51.9294L68.4584 45.0706Z" fill="#B05635"/>
</svg>
