<svg width="86" height="88" viewBox="0 0 95 97" fill="none" xmlns="http://www.w3.org/2000/svg">
<path fill-rule="evenodd" clip-rule="evenodd" d="M47.5 97C21.2665 97 0 75.2857 0 48.5C0 21.7142 21.2665 0 47.5 0C73.7334 0 95 21.7142 95 48.5C95 75.2857 73.7334 97 47.5 97ZM47.5 88.1818C68.964 88.1818 86.3636 70.4158 86.3636 48.5C86.3636 26.5843 68.964 8.81818 47.5 8.81818C26.0362 8.81818 8.63636 26.5843 8.63636 48.5C8.63636 70.4158 26.0362 88.1818 47.5 88.1818ZM68.7049 63.7043L61.6408 58.6312C58.422 63.304 53.1978 66.1364 47.5 66.1364C41.8022 66.1364 36.578 63.304 33.3595 58.6312L26.2953 63.7043C31.1144 70.7007 38.9604 74.9545 47.5 74.9545C56.0396 74.9545 63.8853 70.7007 68.7049 63.7043ZM56.1364 44.0909V35.2727H64.7727V44.0909H56.1364ZM30.2273 35.2727V44.0909H38.8636V35.2727H30.2273Z" fill="#B05635"/>
</svg>
